<svg xmlns="http://www.w3.org/2000/svg" viewBox="0 0 1000 913" width="1000" height="913"><path d="M637.3 43.4 L635.8 44.0 L634.3 44.4 L632.8 44.5 L631.3 44.6 L629.8 44.8 L628.3 45.2 L626.8 45.6 L625.3 45.9 L623.8 46.4 L622.3 46.9 L620.8 47.6 L619.3 48.4 L617.8 49.1 L616.3 49.9 L614.9 50.8 L613.7 51.8 L612.6 52.9 L611.4 54.1 L610.3 55.2 L609.2 56.3 L608.1 57.4 L606.9 58.6 L605.8 59.7 L604.7 60.8 L603.6 61.9 L602.4 63.1 L601.3 64.2 L600.1 65.3 L598.9 66.3 L597.6 67.2 L596.2 68.1 L594.8 68.9 L593.2 69.6 L591.6 70.3 L590.0 70.8 L588.4 71.5 L586.9 72.3 L585.6 73.2 L584.2 74.1 L582.8 74.9 L581.2 75.6 L579.6 76.3 L578.0 76.8 L576.3 77.4 L574.8 77.8 L573.3 78.2 L571.8 78.6 L570.3 78.9 L568.8 79.3 L567.3 79.5 L565.8 79.5 L564.3 79.6 L562.8 79.8 L561.3 80.2 L559.8 80.7 L558.3 81.4 L556.8 82.1 L555.3 82.9 L553.8 83.6 L552.3 84.4 L550.8 85.1 L549.3 85.9 L547.8 86.5 L546.3 86.9 L544.8 87.3 L543.3 87.5 L541.8 87.5 L540.3 87.5 L538.8 87.5 L537.3 87.5 L535.8 87.3 L534.3 87.1 L532.8 86.6 L531.3 86.1 L529.8 85.4 L528.3 84.6 L526.8 83.9 L525.3 83.1 L523.8 82.3 L522.5 81.4 L521.1 80.5 L519.7 79.6 L518.3 78.9 L516.8 78.1 L515.4 77.2 L514.1 76.3 L512.7 75.6 L511.3 75.1 L509.8 74.6 L508.3 74.1 L506.8 73.4 L505.3 72.7 L503.8 72.2 L502.3 71.8 L500.8 71.3 L499.3 70.6 L497.8 69.9 L496.3 69.1 L494.8 68.4 L493.3 67.7 L491.8 67.2 L490.3 66.8 L488.8 66.3 L487.3 65.6 L485.8 64.9 L484.3 64.4 L482.8 63.9 L481.3 63.6 L479.8 63.2 L478.3 62.8 L476.8 62.6 L475.3 62.5 L473.8 62.5 L472.3 62.5 L470.8 62.5 L469.3 62.4 L467.8 62.2 L466.3 61.8 L464.8 61.6 L463.3 61.5 L461.8 61.5 L460.3 61.5 L458.8 61.5 L457.3 61.5 L455.8 61.5 L454.3 61.5 L452.8 61.5 L451.3 61.5 L449.8 61.5 L448.3 61.7 L446.8 62.1 L445.3 62.4 L443.8 62.8 L442.3 63.2 L440.8 63.4 L439.3 63.5 L437.8 63.5 L436.3 63.7 L434.8 64.1 L433.3 64.4 L431.8 64.8 L430.3 65.2 L428.8 65.7 L427.3 66.4 L425.8 67.1 L424.3 67.6 L422.8 68.1 L421.3 68.3 L419.8 68.5 L418.3 68.5 L416.8 68.8 L415.3 69.4 L413.8 70.1 L412.3 70.6 L410.8 71.1 L409.3 71.6 L407.9 72.3 L406.6 73.2 L405.3 74.2 L404.0 75.1 L402.6 76.0 L401.2 76.9 L399.8 77.6 L398.3 78.4 L396.8 79.1 L395.3 79.9 L393.8 80.6 L392.3 81.4 L390.8 82.1 L389.4 83.0 L388.0 83.9 L386.8 84.9 L385.6 85.9 L384.4 87.1 L383.3 88.2 L382.2 89.3 L381.1 90.4 L379.9 91.6 L378.8 92.7 L377.7 93.9 L376.7 95.1 L375.8 96.4 L374.8 97.7 L373.9 99.0 L373.0 100.4 L372.1 101.8 L371.4 103.3 L370.5 104.7 L369.5 105.9 L368.4 107.1 L367.3 108.2 L366.2 109.3 L365.1 110.5 L364.1 111.7 L363.1 113.0 L362.2 114.3 L361.2 115.6 L360.3 116.9 L359.3 118.1 L358.2 119.3 L357.0 120.4 L355.8 121.4 L354.5 122.4 L353.2 123.3 L351.7 124.1 L350.3 124.9 L348.8 125.6 L347.3 126.4 L345.8 127.1 L344.4 128.0 L343.0 128.9 L341.7 129.8 L340.4 130.8 L339.1 131.7 L337.7 132.4 L336.3 132.9 L334.8 133.3 L333.3 133.7 L331.8 134.1 L330.3 134.3 L328.8 134.5 L327.3 134.5 L325.8 134.3 L324.3 134.1 L322.8 133.6 L321.3 133.1 L319.8 132.4 L318.3 131.6 L316.8 130.9 L315.3 130.1 L313.8 129.5 L312.3 129.1 L310.8 128.7 L309.3 128.5 L307.8 128.5 L306.3 128.5 L304.8 128.5 L303.3 128.5 L301.8 128.2 L300.3 127.6 L298.8 126.9 L297.3 126.1 L295.8 125.4 L294.3 124.6 L292.8 123.9 L291.3 123.2 L289.8 122.7 L288.3 122.5 L286.8 122.5 L285.3 122.5 L283.8 122.5 L282.3 122.7 L280.8 123.2 L279.3 123.9 L277.8 124.5 L276.3 124.9 L274.8 125.3 L273.3 125.7 L271.8 126.1 L270.3 126.4 L268.8 126.8 L267.3 127.2 L265.8 127.4 L264.3 127.5 L262.8 127.6 L261.3 128.0 L259.8 128.6 L258.3 129.4 L256.8 130.1 L255.3 130.9 L253.8 131.6 L252.3 132.4 L250.8 133.1 L249.3 133.9 L247.8 134.6 L246.3 135.4 L244.8 136.1 L243.3 136.9 L241.8 137.7 L240.5 138.6 L239.2 139.5 L237.8 140.5 L236.5 141.4 L235.2 142.3 L233.9 143.3 L232.6 144.2 L231.2 145.1 L229.8 145.9 L228.3 146.6 L226.8 147.4 L225.3 148.1 L223.8 148.9 L222.4 149.8 L221.1 150.7 L219.9 151.7 L218.7 152.8 L217.5 153.9 L216.3 154.9 L215.0 155.9 L213.7 156.8 L212.4 157.8 L211.1 158.7 L209.8 159.7 L208.5 160.6 L207.2 161.5 L205.8 162.5 L204.5 163.4 L203.2 164.3 L201.9 165.3 L200.6 166.2 L199.3 167.2 L198.0 168.1 L196.7 169.0 L195.3 170.0 L194.0 170.9 L192.7 171.8 L191.4 172.8 L190.1 173.7 L188.7 174.6 L187.3 175.4 L185.8 176.1 L184.4 177.0 L183.0 177.9 L181.7 178.8 L180.4 179.8 L179.1 180.7 L177.8 181.7 L176.5 182.6 L175.2 183.5 L173.8 184.5 L172.5 185.4 L171.2 186.3 L169.7 187.1 L168.3 187.9 L166.8 188.6 L165.3 189.4 L163.8 190.1 L162.4 191.0 L161.0 191.9 L159.7 192.8 L158.4 193.8 L157.1 194.7 L155.8 195.7 L154.5 196.6 L153.2 197.5 L151.8 198.5 L150.5 199.4 L149.2 200.3 L147.7 201.1 L146.3 201.9 L144.8 202.6 L143.3 203.4 L141.8 204.1 L140.3 204.9 L138.8 205.6 L137.3 206.4 L135.9 207.3 L134.6 208.2 L133.3 209.2 L132.0 210.1 L130.6 211.0 L129.2 211.9 L127.8 212.6 L126.3 213.3 L124.8 213.8 L123.3 214.2 L121.8 214.6 L120.3 214.9 L118.8 215.3 L117.3 215.7 L115.8 216.1 L114.3 216.4 L112.8 216.8 L111.3 217.2 L109.8 217.7 L108.3 218.4 L106.8 219.1 L105.3 219.9 L103.8 220.6 L102.3 221.3 L100.8 221.8 L99.3 222.2 L97.8 222.7 L96.3 223.4 L94.8 224.0 L93.3 224.4 L91.8 224.5 L90.3 224.6 L88.8 224.8 L87.3 225.2 L85.8 225.7 L84.3 226.4 L82.8 227.1 L81.4 228.0 L80.0 228.9 L78.9 230.0 L77.9 231.3 L77.1 232.8 L76.4 234.3 L75.6 235.8 L75.0 237.3 L74.6 238.8 L74.5 240.3 L74.5 241.8 L74.5 243.3 L74.5 244.8 L74.5 246.3 L74.5 247.8 L74.5 249.3 L74.3 250.8 L73.9 252.3 L73.7 253.8 L73.5 255.3 L73.5 256.8 L73.5 258.3 L73.5 259.8 L73.5 261.3 L73.5 262.8 L73.5 264.3 L73.5 265.8 L73.5 267.3 L73.5 268.8 L73.7 270.3 L73.9 271.8 L74.3 273.3 L74.7 274.8 L75.1 276.3 L75.3 277.8 L75.5 279.3 L75.5 280.8 L75.7 282.3 L75.9 283.8 L76.3 285.3 L76.5 286.8 L76.5 288.3 L76.6 289.8 L76.8 291.3 L77.2 292.8 L77.7 294.3 L78.4 295.8 L79.1 297.3 L79.9 298.8 L80.6 300.3 L81.4 301.8 L82.1 303.3 L82.9 304.8 L83.5 306.3 L83.9 307.8 L84.3 309.3 L84.7 310.8 L85.1 312.3 L85.3 313.8 L85.5 315.3 L85.5 316.8 L85.7 318.3 L85.9 319.8 L86.3 321.3 L86.7 322.8 L87.1 324.3 L87.5 325.8 L88.1 327.3 L88.9 328.8 L89.6 330.3 L90.4 331.8 L91.1 333.3 L91.6 334.8 L92.1 336.3 L92.5 337.8 L93.1 339.3 L93.9 340.8 L94.6 342.3 L95.4 343.8 L96.1 345.3 L96.9 346.8 L97.6 348.3 L98.3 349.8 L98.8 351.3 L99.2 352.8 L99.6 354.3 L99.9 355.8 L100.3 357.3 L100.7 358.8 L101.1 360.3 L101.5 361.8 L102.1 363.3 L102.9 364.8 L103.5 366.3 L103.9 367.8 L104.4 369.3 L104.9 370.8 L105.6 372.3 L106.3 373.8 L106.8 375.3 L107.2 376.8 L107.7 378.3 L108.4 379.8 L109.1 381.3 L109.9 382.8 L110.6 384.3 L111.3 385.8 L111.8 387.3 L112.2 388.8 L112.7 390.3 L113.4 391.8 L114.1 393.3 L114.9 394.8 L115.6 396.3 L116.3 397.8 L116.8 399.3 L117.2 400.8 L117.6 402.3 L117.9 403.8 L118.3 405.3 L118.7 406.8 L119.1 408.3 L119.4 409.8 L119.8 411.3 L120.2 412.8 L120.6 414.3 L120.9 415.8 L121.4 417.3 L121.9 418.8 L122.6 420.3 L123.4 421.7 L124.3 423.1 L125.2 424.4 L126.2 425.6 L127.3 426.8 L128.4 428.0 L129.4 429.2 L130.4 430.5 L131.2 431.8 L131.8 433.3 L132.2 434.7 L132.8 436.2 L133.6 437.5 L134.5 438.8 L135.5 440.2 L136.4 441.5 L137.3 442.8 L138.1 444.3 L138.9 445.8 L139.6 447.3 L140.4 448.8 L141.1 450.3 L141.9 451.8 L142.6 453.3 L143.3 454.8 L143.8 456.3 L144.2 457.7 L144.8 459.2 L145.6 460.5 L146.5 461.8 L147.5 463.2 L148.4 464.5 L149.3 465.8 L150.3 467.1 L151.2 468.4 L152.2 469.7 L153.1 471.0 L154.0 472.4 L154.9 473.8 L155.6 475.3 L156.4 476.7 L157.3 478.1 L158.2 479.4 L159.2 480.7 L160.1 482.0 L161.1 483.3 L162.2 484.4 L163.5 485.4 L164.8 486.3 L166.1 487.3 L167.4 488.2 L168.7 489.2 L170.0 490.1 L171.4 491.0 L172.8 491.9 L174.3 492.6 L175.7 493.4 L177.1 494.3 L178.4 495.2 L179.6 496.2 L180.8 497.3 L181.9 498.4 L183.1 499.6 L184.2 500.7 L185.3 501.8 L186.4 502.9 L187.6 504.1 L188.7 505.2 L189.8 506.3 L191.0 507.4 L192.2 508.4 L193.5 509.4 L194.8 510.3 L196.1 511.3 L197.4 512.2 L198.8 513.1 L200.3 513.9 L201.8 514.6 L203.4 515.3 L205.0 515.8 L206.6 516.5 L208.1 517.3 L209.4 518.2 L210.7 519.2 L212.0 520.1 L213.3 521.1 L214.5 522.1 L215.7 523.2 L216.9 524.3 L218.1 525.3 L219.4 526.2 L220.7 527.2 L222.0 528.1 L223.4 529.0 L224.8 529.9 L226.3 530.6 L227.8 531.4 L229.3 532.1 L230.8 532.9 L232.3 533.5 L233.8 533.9 L235.3 534.4 L236.8 534.9 L238.3 535.6 L239.8 536.4 L241.3 537.1 L242.7 537.9 L244.0 538.9 L245.1 540.0 L246.0 541.3 L247.0 542.7 L247.9 544.0 L248.8 545.3 L249.6 546.8 L250.4 548.2 L251.2 549.7 L252.1 551.0 L253.0 552.4 L253.9 553.8 L254.6 555.3 L255.4 556.8 L256.1 558.3 L256.9 559.8 L257.6 561.3 L258.4 562.8 L259.2 564.2 L260.1 565.5 L261.2 566.7 L262.2 567.9 L263.1 569.3 L263.9 570.7 L264.7 572.2 L265.6 573.5 L266.5 574.8 L267.5 576.2 L268.4 577.5 L269.3 578.8 L270.3 580.1 L271.2 581.4 L272.1 582.8 L272.9 584.3 L273.6 585.7 L274.5 587.1 L275.4 588.5 L276.3 589.8 L277.3 591.1 L278.2 592.4 L279.2 593.6 L280.3 594.8 L281.4 595.9 L282.6 597.1 L283.7 598.2 L284.8 599.3 L285.9 600.4 L287.1 601.6 L288.2 602.7 L289.3 603.8 L290.4 604.9 L291.6 606.1 L292.7 607.2 L293.8 608.4 L294.8 609.6 L295.7 610.9 L296.7 612.1 L297.8 613.3 L298.9 614.4 L300.1 615.6 L301.2 616.7 L302.4 617.8 L303.6 618.8 L304.9 619.7 L306.2 620.7 L307.5 621.6 L308.8 622.6 L309.9 623.7 L310.9 625.0 L311.8 626.3 L312.8 627.6 L313.7 628.9 L314.7 630.1 L315.8 631.3 L317.0 632.4 L318.2 633.4 L319.5 634.4 L320.7 635.4 L321.9 636.4 L323.1 637.6 L324.1 638.8 L325.1 640.0 L326.1 641.3 L327.1 642.5 L328.2 643.7 L329.4 644.8 L330.6 645.8 L331.9 646.7 L333.1 647.7 L334.3 648.8 L335.5 649.9 L336.7 650.9 L338.0 651.9 L339.4 652.8 L340.9 653.5 L342.6 654.0 L344.2 654.7 L345.8 655.4 L347.3 656.1 L348.8 656.9 L350.3 657.6 L351.7 658.4 L353.1 659.3 L354.4 660.2 L355.8 661.1 L357.3 661.9 L358.8 662.6 L360.4 663.3 L362.0 663.8 L363.7 664.5 L365.2 665.1 L366.7 665.9 L368.2 666.7 L369.5 667.6 L370.9 668.5 L372.3 669.4 L373.8 670.1 L375.3 670.9 L376.8 671.6 L378.3 672.4 L379.8 673.1 L381.3 673.9 L382.8 674.6 L384.4 675.3 L386.0 675.8 L387.7 676.5 L389.2 677.1 L390.8 677.9 L392.3 678.5 L393.8 678.9 L395.3 679.3 L396.8 679.7 L398.3 680.1 L399.8 680.5 L401.3 681.1 L402.8 681.9 L404.3 682.6 L405.8 683.4 L407.3 684.1 L408.8 684.6 L410.3 685.1 L411.8 685.4 L413.3 685.8 L414.8 686.2 L416.3 686.4 L417.8 686.5 L419.3 686.5 L420.8 686.5 L422.3 686.5 L423.8 686.6 L425.3 686.8 L426.8 687.2 L428.3 687.4 L429.8 687.5 L431.3 687.5 L432.8 687.7 L434.3 688.1 L435.8 688.4 L437.3 688.8 L438.8 689.2 L440.3 689.4 L441.8 689.5 L443.3 689.5 L444.8 689.5 L446.3 689.5 L447.8 689.5 L449.3 689.5 L450.8 689.5 L452.3 689.5 L453.8 689.5 L455.3 689.5 L456.8 689.5 L458.3 689.5 L459.8 689.5 L461.3 689.5 L462.8 689.5 L464.3 689.5 L465.8 689.5 L467.3 689.6 L468.8 690.0 L470.3 690.6 L471.7 691.5 L472.9 692.5 L474.1 693.6 L475.1 694.8 L476.1 696.0 L477.0 697.4 L477.9 698.8 L478.6 700.3 L479.1 701.8 L479.1 703.3 L478.8 704.8 L478.4 706.3 L478.1 707.8 L477.7 709.3 L477.5 710.8 L477.5 712.3 L477.5 713.8 L477.5 715.3 L477.5 716.8 L477.7 718.3 L477.9 719.8 L478.3 721.3 L478.5 722.8 L478.5 724.3 L478.5 725.8 L478.5 727.3 L478.5 728.8 L478.5 730.3 L478.5 731.8 L478.5 733.3 L478.5 734.8 L478.5 736.3 L478.7 737.8 L479.2 739.3 L479.9 740.8 L480.6 742.3 L481.4 743.8 L482.1 745.3 L482.6 746.8 L483.1 748.3 L483.3 749.8 L483.5 751.3 L483.5 752.8 L483.5 754.3 L483.5 755.8 L483.5 757.3 L483.5 758.8 L483.5 760.3 L483.6 761.8 L483.8 763.3 L484.2 764.8 L484.6 766.3 L484.9 767.8 L485.4 769.2 L486.0 770.6 L486.9 772.0 L487.9 773.2 L488.9 774.4 L490.1 775.6 L491.2 776.7 L492.3 777.8 L493.5 778.9 L494.7 779.9 L496.0 780.9 L497.3 781.8 L498.6 782.8 L499.9 783.7 L501.3 784.4 L502.8 784.9 L504.3 785.3 L505.8 785.7 L507.3 786.1 L508.8 786.3 L510.3 786.5 L511.8 786.5 L513.3 786.5 L514.8 786.5 L516.3 786.6 L517.8 787.0 L519.3 787.6 L520.8 788.3 L522.3 788.8 L523.8 789.2 L525.3 789.6 L526.8 789.9 L528.3 790.3 L529.8 790.5 L531.3 790.5 L532.8 790.6 L534.3 790.8 L535.8 791.2 L537.3 791.4 L538.8 791.5 L540.3 791.5 L541.8 791.5 L543.3 791.5 L544.8 791.6 L546.3 791.8 L547.8 792.2 L549.3 792.7 L550.8 793.4 L552.3 794.0 L553.8 794.4 L555.3 794.5 L556.8 794.5 L558.3 794.5 L559.8 794.5 L561.3 794.5 L562.8 794.5 L564.3 794.5 L565.8 794.3 L567.3 793.9 L568.8 793.7 L570.3 793.5 L571.8 793.5 L573.3 793.5 L574.8 793.5 L576.3 793.5 L577.8 793.3 L579.3 792.9 L580.8 792.7 L582.3 792.5 L583.8 792.5 L585.3 792.2 L586.8 791.6 L588.3 790.9 L589.8 790.1 L591.3 789.4 L592.7 788.6 L594.1 787.7 L595.4 786.8 L596.6 785.8 L597.8 784.7 L598.9 783.6 L600.1 782.4 L601.2 781.3 L602.3 780.1 L603.3 778.9 L604.2 777.6 L605.2 776.4 L606.3 775.2 L607.4 774.1 L608.6 772.9 L609.7 771.8 L610.8 770.6 L611.8 769.4 L612.7 768.1 L613.7 766.9 L614.8 765.7 L615.9 764.5 L616.8 763.2 L617.6 761.8 L618.4 760.3 L619.1 758.8 L619.9 757.3 L620.6 755.8 L621.4 754.3 L622.1 752.8 L623.0 751.4 L623.9 750.0 L624.8 748.6 L625.5 747.1 L626.0 745.4 L626.7 743.8 L627.4 742.3 L628.0 740.8 L628.4 739.3 L628.5 737.8 L628.5 736.3 L628.5 734.8 L628.5 733.3 L628.7 731.8 L628.9 730.3 L629.3 728.8 L629.5 727.3 L629.5 725.8 L629.5 724.3 L629.5 722.8 L629.5 721.3 L629.3 719.8 L629.1 718.3 L628.7 716.8 L628.5 715.3 L628.5 713.8 L628.4 712.3 L628.2 710.8 L627.8 709.3 L627.4 707.8 L627.1 706.3 L626.7 704.8 L626.3 703.3 L625.9 701.8 L625.6 700.3 L625.2 698.8 L624.8 697.3 L624.3 695.8 L623.6 694.3 L622.9 692.8 L622.4 691.3 L621.9 689.8 L621.5 688.3 L620.9 686.8 L620.1 685.3 L619.5 683.8 L619.1 682.3 L618.7 680.8 L618.3 679.3 L617.9 677.8 L617.8 676.3 L617.8 674.8 L618.2 673.3 L618.8 671.8 L619.6 670.5 L620.5 669.2 L621.5 667.8 L622.4 666.5 L623.4 665.3 L624.6 664.2 L625.9 663.3 L627.2 662.3 L628.5 661.4 L629.8 660.4 L631.0 659.4 L632.2 658.3 L633.4 657.2 L634.6 656.2 L635.9 655.3 L637.3 654.4 L638.8 653.6 L640.2 652.9 L641.6 652.0 L643.0 651.1 L644.3 650.2 L645.6 649.2 L646.9 648.3 L648.2 647.3 L649.5 646.4 L650.8 645.5 L652.2 644.5 L653.5 643.6 L654.8 642.7 L656.1 641.7 L657.4 640.8 L658.6 639.8 L659.8 638.7 L660.9 637.5 L661.9 636.3 L662.9 635.0 L663.9 633.8 L664.9 632.6 L666.1 631.4 L667.3 630.4 L668.5 629.4 L669.8 628.5 L671.2 627.5 L672.5 626.6 L673.8 625.8 L675.3 625.2 L676.8 624.8 L678.3 624.4 L679.8 624.1 L681.3 623.8 L682.8 623.8 L684.3 624.1 L685.8 624.3 L687.3 624.5 L688.8 624.5 L690.3 624.5 L691.8 624.5 L693.3 624.5 L694.8 624.5 L696.3 624.5 L697.8 624.5 L699.3 624.5 L700.8 624.5 L702.3 624.7 L703.8 624.9 L705.3 625.3 L706.8 625.7 L708.3 626.1 L709.8 626.3 L711.3 626.5 L712.8 626.5 L714.3 626.5 L715.8 626.5 L717.3 626.5 L718.8 626.3 L720.3 625.9 L721.8 625.7 L723.3 625.5 L724.8 625.5 L726.3 625.5 L727.8 625.5 L729.3 625.5 L730.8 625.3 L732.3 624.9 L733.8 624.6 L735.3 624.2 L736.8 623.8 L738.3 623.6 L739.8 623.5 L741.3 623.5 L742.8 623.5 L744.3 623.5 L745.8 623.4 L747.3 623.2 L748.8 622.8 L750.3 622.4 L751.8 622.1 L753.3 621.6 L754.8 621.1 L756.3 620.4 L757.8 619.7 L759.3 619.2 L760.7 618.8 L762.2 618.2 L763.5 617.4 L764.8 616.5 L766.2 615.5 L767.5 614.6 L768.7 613.6 L769.9 612.6 L771.1 611.4 L772.1 610.2 L773.1 609.0 L774.0 607.7 L775.0 606.3 L775.9 605.0 L776.9 603.8 L778.1 602.7 L779.4 601.8 L780.6 600.8 L781.8 599.7 L782.9 598.5 L783.8 597.2 L784.6 595.8 L785.4 594.3 L786.1 592.8 L786.9 591.3 L787.6 589.8 L788.4 588.3 L789.1 586.8 L790.0 585.4 L790.9 584.0 L791.8 582.7 L792.6 581.2 L793.4 579.7 L794.0 578.2 L794.7 576.5 L795.3 574.9 L796.0 573.4 L796.9 572.0 L797.8 570.6 L798.5 569.1 L799.0 567.4 L799.5 565.8 L799.9 564.3 L800.3 562.8 L800.5 561.3 L800.5 559.8 L800.6 558.3 L800.8 556.8 L801.2 555.3 L801.6 553.8 L801.9 552.3 L802.3 550.8 L802.5 549.3 L802.5 547.8 L802.6 546.3 L802.8 544.8 L803.2 543.3 L803.7 541.8 L804.4 540.3 L805.1 538.8 L805.6 537.3 L806.1 535.8 L806.4 534.3 L806.8 532.8 L807.2 531.3 L807.4 529.8 L807.5 528.3 L807.6 526.8 L808.0 525.3 L808.6 523.8 L809.2 522.3 L809.5 520.8 L809.5 519.3 L809.5 517.8 L809.5 516.3 L809.5 514.8 L809.5 513.3 L809.5 511.8 L809.5 510.3 L809.5 508.8 L809.5 507.3 L809.5 505.8 L809.5 504.3 L809.5 502.8 L809.5 501.3 L809.5 499.8 L809.5 498.3 L809.5 496.8 L809.5 495.3 L809.5 493.8 L809.5 492.3 L809.5 490.8 L809.7 489.3 L810.1 487.8 L810.5 486.3 L811.1 484.8 L811.9 483.3 L812.7 481.8 L813.6 480.5 L814.5 479.2 L815.5 477.8 L816.4 476.5 L817.3 475.2 L818.3 473.9 L819.2 472.6 L820.2 471.4 L821.3 470.2 L822.5 469.1 L823.7 468.1 L825.0 467.1 L826.4 466.3 L827.9 465.5 L829.6 465.0 L831.2 464.6 L832.8 464.5 L834.3 464.6 L835.8 465.0 L837.3 465.6 L838.7 466.4 L840.1 467.3 L841.4 468.2 L842.6 469.3 L843.6 470.5 L844.6 471.8 L845.6 473.0 L846.7 474.2 L847.8 475.4 L848.8 476.6 L849.7 477.9 L850.7 479.2 L851.6 480.5 L852.6 481.8 L853.6 483.0 L854.7 484.2 L855.9 485.3 L857.1 486.3 L858.4 487.2 L859.9 488.0 L861.5 488.7 L863.1 489.2 L864.7 489.9 L866.3 490.6 L867.8 491.4 L869.3 492.1 L870.8 492.8 L872.3 493.3 L873.8 493.5 L875.3 493.5 L876.8 493.3 L878.3 492.9 L879.8 492.6 L881.3 492.2 L882.8 491.8 L884.3 491.4 L885.8 491.1 L887.3 490.7 L888.8 490.3 L890.3 489.9 L891.8 489.5 L893.3 488.9 L894.7 488.1 L896.2 487.3 L897.5 486.4 L898.8 485.5 L900.2 484.5 L901.5 483.6 L902.7 482.6 L903.8 481.4 L904.7 480.1 L905.7 478.8 L906.6 477.5 L907.5 476.2 L908.5 474.8 L909.4 473.5 L910.3 472.2 L911.1 470.7 L911.9 469.3 L912.7 467.8 L913.6 466.5 L914.5 465.2 L915.5 463.8 L916.4 462.5 L917.3 461.2 L918.1 459.7 L918.9 458.3 L919.6 456.8 L920.4 455.3 L921.1 453.8 L921.6 452.3 L922.1 450.8 L922.5 449.3 L923.1 447.8 L923.9 446.3 L924.6 444.8 L925.4 443.3 L926.1 441.8 L926.6 440.3 L927.1 438.8 L927.4 437.3 L927.8 435.8 L928.2 434.3 L928.6 432.8 L928.9 431.3 L929.3 429.8 L929.7 428.3 L930.1 426.8 L930.5 425.3 L931.1 423.8 L931.9 422.3 L932.5 420.8 L932.9 419.3 L933.3 417.8 L933.5 416.3 L933.5 414.8 L933.5 413.3 L933.5 411.8 L933.5 410.3 L933.5 408.8 L933.5 407.3 L933.5 405.8 L933.5 404.3 L933.5 402.8 L933.5 401.3 L933.5 399.8 L933.5 398.3 L933.5 396.8 L933.5 395.3 L933.5 393.8 L933.5 392.3 L933.5 390.8 L933.6 389.3 L933.8 387.8 L934.2 386.3 L934.6 384.8 L934.9 383.3 L935.3 381.8 L935.5 380.3 L935.5 378.8 L935.6 377.3 L935.8 375.8 L936.2 374.3 L936.6 372.8 L936.9 371.3 L937.3 369.8 L937.5 368.3 L937.5 366.8 L937.5 365.3 L937.5 363.8 L937.5 362.3 L937.5 360.8 L937.5 359.3 L937.5 357.8 L937.5 356.3 L937.5 354.8 L937.6 353.3 L937.8 351.8 L938.2 350.3 L938.4 348.8 L938.5 347.3 L938.5 345.8 L938.5 344.3 L938.5 342.8 L938.5 341.3 L938.5 339.8 L938.5 338.3 L938.7 336.8 L938.9 335.3 L939.3 333.8 L939.7 332.3 L940.1 330.8 L940.3 329.3 L940.5 327.8 L940.5 326.3 L940.5 324.8 L940.5 323.3 L940.5 321.8 L940.5 320.3 L940.5 318.8 L940.6 317.3 L940.8 315.8 L941.2 314.3 L941.6 312.8 L941.9 311.3 L942.4 309.8 L942.9 308.3 L943.6 306.8 L944.2 305.3 L944.5 303.8 L944.5 302.3 L944.3 300.8 L944.1 299.3 L943.7 297.8 L943.5 296.3 L943.5 294.8 L943.5 293.3 L943.5 291.8 L943.5 290.3 L943.7 288.8 L943.9 287.3 L944.3 285.8 L944.5 284.3 L944.5 282.8 L944.6 281.3 L944.8 279.8 L945.2 278.3 L945.4 276.8 L945.5 275.3 L945.5 273.8 L945.7 272.3 L946.1 270.8 L946.4 269.3 L946.8 267.8 L947.2 266.3 L947.4 264.8 L947.5 263.3 L947.5 261.8 L947.7 260.3 L948.1 258.8 L948.4 257.3 L948.8 255.8 L949.2 254.3 L949.4 252.8 L949.5 251.3 L949.5 249.8 L949.5 248.3 L949.5 246.8 L949.5 245.3 L949.5 243.8 L949.5 242.3 L949.7 240.8 L949.9 239.3 L950.3 237.8 L950.5 236.3 L950.5 234.8 L950.5 233.3 L950.5 231.8 L950.5 230.3 L950.5 228.8 L950.5 227.3 L950.5 225.8 L950.5 224.3 L950.5 222.8 L950.5 221.3 L950.5 219.8 L950.5 218.3 L950.3 216.8 L950.1 215.3 L949.7 213.8 L949.3 212.3 L948.9 210.8 L948.7 209.3 L948.5 207.8 L948.5 206.3 L948.5 204.8 L948.5 203.3 L948.5 201.8 L948.3 200.3 L947.9 198.8 L947.6 197.3 L947.2 195.8 L946.8 194.3 L946.4 192.8 L946.1 191.3 L945.7 189.8 L945.3 188.3 L944.9 186.8 L944.6 185.3 L944.2 183.8 L943.8 182.3 L943.3 180.8 L942.6 179.3 L941.9 177.8 L941.1 176.3 L940.4 174.8 L939.7 173.3 L939.2 171.8 L938.8 170.3 L938.2 168.8 L937.4 167.5 L936.5 166.2 L935.5 164.8 L934.6 163.5 L933.6 162.3 L932.6 161.1 L931.4 159.9 L930.4 158.7 L929.4 157.5 L928.4 156.2 L927.4 155.0 L926.3 153.8 L925.2 152.7 L924.1 151.6 L922.9 150.4 L921.8 149.3 L920.7 148.2 L919.6 147.1 L918.4 145.9 L917.3 144.8 L916.2 143.7 L915.1 142.6 L913.9 141.4 L912.7 140.4 L911.5 139.4 L910.2 138.5 L908.8 137.5 L907.5 136.6 L906.2 135.7 L904.7 134.9 L903.3 134.1 L901.9 133.2 L900.7 132.2 L899.5 131.1 L898.2 130.2 L896.8 129.4 L895.3 128.6 L893.9 127.7 L892.6 126.8 L891.3 125.8 L890.0 124.9 L888.7 124.0 L887.3 123.0 L886.0 122.1 L884.7 121.2 L883.4 120.2 L882.1 119.3 L880.8 118.3 L879.5 117.4 L878.2 116.4 L877.0 115.4 L875.8 114.3 L874.7 113.2 L873.6 112.1 L872.4 110.9 L871.4 109.7 L870.4 108.5 L869.5 107.2 L868.5 105.8 L867.6 104.5 L866.7 103.2 L865.7 101.9 L864.8 100.6 L863.8 99.4 L862.7 98.2 L861.5 97.1 L860.3 96.1 L859.0 95.1 L857.7 94.2 L856.4 93.2 L855.1 92.3 L853.7 91.4 L852.3 90.6 L850.8 89.9 L849.3 89.4 L847.8 88.9 L846.3 88.7 L844.8 88.5 L843.3 88.5 L841.8 88.5 L840.3 88.5 L838.8 88.5 L837.3 88.5 L835.8 88.5 L834.3 88.5 L832.8 88.5 L831.3 88.5 L829.8 88.5 L828.3 88.5 L826.8 88.5 L825.3 88.7 L823.8 89.1 L822.3 89.4 L820.8 89.8 L819.3 90.2 L817.8 90.6 L816.3 90.9 L814.8 91.3 L813.3 91.5 L811.8 91.5 L810.3 91.5 L808.8 91.5 L807.3 91.5 L805.8 91.3 L804.3 91.1 L802.8 90.7 L801.3 90.5 L799.8 90.5 L798.3 90.7 L796.8 91.2 L795.3 91.9 L793.8 92.6 L792.3 93.4 L790.8 94.2 L789.5 95.1 L788.3 96.2 L787.1 97.2 L785.7 98.1 L784.3 98.9 L782.8 99.5 L781.3 99.9 L779.8 100.2 L778.3 100.2 L776.8 99.9 L775.3 99.4 L773.9 98.7 L772.6 97.8 L771.3 96.8 L770.0 95.9 L768.6 95.0 L767.2 94.4 L765.8 93.9 L764.3 93.6 L762.8 93.2 L761.3 92.8 L759.8 92.6 L758.3 92.5 L756.8 92.5 L755.3 92.3 L753.8 91.9 L752.3 91.4 L750.9 90.7 L749.6 89.8 L748.3 88.8 L747.0 87.9 L745.7 87.0 L744.3 86.0 L743.0 85.1 L741.8 84.1 L740.6 83.1 L739.4 81.9 L738.2 80.9 L737.0 79.9 L735.7 79.0 L734.3 78.0 L733.0 77.1 L731.7 76.2 L730.4 75.2 L729.1 74.3 L727.8 73.3 L726.5 72.4 L725.2 71.5 L723.8 70.5 L722.5 69.6 L721.2 68.7 L719.9 67.7 L718.6 66.8 L717.3 65.8 L716.0 64.9 L714.7 64.0 L713.3 63.0 L712.0 62.1 L710.7 61.2 L709.4 60.2 L708.1 59.3 L706.7 58.4 L705.3 57.6 L703.8 56.9 L702.3 56.1 L700.8 55.4 L699.3 54.6 L697.8 53.9 L696.3 53.1 L694.8 52.5 L693.3 52.1 L691.8 51.7 L690.3 51.3 L688.8 50.9 L687.3 50.6 L685.8 50.2 L684.3 49.8 L682.8 49.4 L681.3 49.1 L679.8 48.7 L678.3 48.5 L676.8 48.5 L675.3 48.3 L673.8 47.8 L672.3 47.1 L670.8 46.5 L669.3 46.1 L667.8 45.7 L666.3 45.3 L664.8 44.9 L663.3 44.7 L661.8 44.5 L660.3 44.5 L658.8 44.5 L657.3 44.5 L655.8 44.5 L654.3 44.5 L652.8 44.5 L651.3 44.4 L649.8 44.2 L648.3 43.8 L646.8 43.4 L645.3 43.1 L643.8 42.7 L642.3 42.5 L640.8 42.5 L639.3 42.7 L637.8 43.2 Z" fill="#C25A36"></path><path d="M637.3 43.4 L635.8 44.0 L634.3 44.4 L632.8 44.5 L631.3 44.6 L629.8 44.8 L628.3 45.2 L626.8 45.6 L625.3 45.9 L623.8 46.4 L622.3 46.9 L620.8 47.6 L619.3 48.4 L617.8 49.1 L616.3 49.9 L614.9 50.8 L613.7 51.8 L612.6 52.9 L611.4 54.1 L610.3 55.2 L609.2 56.3 L608.1 57.4 L606.9 58.6 L605.8 59.7 L604.7 60.8 L603.6 61.9 L602.4 63.1 L601.3 64.2 L600.1 65.3 L598.9 66.3 L597.6 67.2 L596.2 68.1 L594.8 68.9 L593.2 69.6 L591.6 70.3 L590.0 70.8 L588.4 71.5 L586.9 72.3 L585.6 73.2 L584.2 74.1 L582.8 74.9 L581.2 75.6 L579.6 76.3 L578.0 76.8 L576.3 77.4 L574.8 77.8 L573.3 78.2 L571.8 78.6 L570.3 78.9 L568.8 79.3 L567.3 79.5 L565.8 79.5 L564.3 79.6 L562.8 79.8 L561.3 80.2 L559.8 80.7 L558.3 81.4 L556.8 82.1 L555.3 82.9 L553.8 83.6 L552.3 84.4 L550.8 85.1 L549.3 85.9 L547.8 86.5 L546.3 86.9 L544.8 87.3 L543.3 87.5 L541.8 87.5 L540.3 87.5 L538.8 87.5 L537.3 87.5 L535.8 87.3 L534.3 87.1 L532.8 86.6 L531.3 86.1 L529.8 85.4 L528.3 84.6 L526.8 83.9 L525.3 83.1 L523.8 82.3 L522.5 81.4 L521.1 80.5 L519.7 79.6 L518.3 78.9 L516.8 78.1 L515.4 77.2 L514.1 76.3 L512.7 75.6 L511.3 75.1 L509.8 74.6 L508.3 74.1 L506.8 73.4 L505.3 72.7 L503.8 72.2 L502.3 71.8 L500.8 71.3 L499.3 70.6 L497.8 69.9 L496.3 69.1 L494.8 68.4 L493.3 67.7 L491.8 67.2 L490.3 66.8 L488.8 66.3 L487.3 65.6 L485.8 64.9 L484.3 64.4 L482.8 63.9 L481.3 63.6 L479.8 63.2 L478.3 62.8 L476.8 62.6 L475.3 62.5 L473.8 62.5 L472.3 62.5 L470.8 62.5 L469.3 62.4 L467.8 62.2 L466.3 61.8 L464.8 61.6 L463.3 61.5 L461.8 61.5 L460.3 61.5 L458.8 61.5 L457.3 61.5 L455.8 61.5 L454.3 61.5 L452.8 61.5 L451.3 61.5 L449.8 61.5 L448.3 61.7 L446.8 62.1 L445.3 62.4 L443.8 62.8 L442.3 63.2 L440.8 63.4 L439.3 63.5 L437.8 63.5 L436.3 63.7 L434.8 64.1 L433.3 64.4 L431.8 64.8 L430.3 65.2 L428.8 65.7 L427.3 66.4 L425.8 67.1 L424.3 67.6 L422.8 68.1 L421.3 68.3 L419.8 68.5 L418.3 68.5 L416.8 68.8 L415.3 69.4 L413.8 70.1 L412.3 70.6 L410.8 71.1 L409.3 71.6 L407.9 72.3 L406.6 73.2 L405.3 74.2 L404.0 75.1 L402.6 76.0 L401.2 76.9 L399.8 77.6 L398.3 78.4 L396.8 79.1 L395.3 79.9 L393.8 80.6 L392.3 81.4 L390.8 82.1 L389.4 83.0 L388.0 83.9 L386.8 84.9 L385.6 85.9 L384.4 87.1 L383.3 88.2 L382.2 89.3 L381.1 90.4 L379.9 91.6 L378.8 92.7 L377.7 93.9 L376.7 95.1 L375.8 96.4 L374.8 97.7 L373.9 99.0 L373.0 100.4 L372.1 101.8 L371.4 103.3 L370.5 104.7 L369.5 105.9 L368.4 107.1 L367.3 108.2 L366.2 109.3 L365.1 110.5 L364.1 111.7 L363.1 113.0 L362.2 114.3 L361.2 115.6 L360.3 116.9 L359.3 118.1 L358.2 119.3 L357.0 120.4 L355.8 121.4 L354.5 122.4 L353.2 123.3 L351.7 124.1 L350.3 124.9 L348.8 125.6 L347.3 126.4 L345.8 127.1 L344.4 128.0 L343.0 128.9 L341.7 129.8 L340.4 130.8 L339.1 131.7 L337.7 132.4 L336.3 132.9 L334.8 133.3 L333.3 133.7 L331.8 134.1 L330.3 134.3 L328.8 134.5 L327.3 134.5 L325.8 134.3 L324.3 134.1 L322.8 133.6 L321.3 133.1 L319.8 132.4 L318.3 131.6 L316.8 130.9 L315.3 130.1 L313.8 129.5 L312.3 129.1 L310.8 128.7 L309.3 128.5 L307.8 128.5 L306.3 128.5 L304.8 128.5 L303.3 128.5 L301.8 128.2 L300.3 127.6 L298.8 126.9 L297.3 126.1 L295.8 125.4 L294.3 124.6 L292.8 123.9 L291.3 123.2 L289.8 122.7 L288.3 122.5 L286.8 122.5 L285.3 122.5 L283.8 122.5 L282.3 122.7 L280.8 123.2 L279.3 123.9 L277.8 124.5 L276.3 124.9 L274.8 125.3 L273.3 125.7 L271.8 126.1 L270.3 126.4 L268.8 126.8 L267.3 127.2 L265.8 127.4 L264.3 127.5 L262.8 127.6 L261.3 128.0 L259.8 128.6 L258.3 129.4 L256.8 130.1 L255.3 130.9 L253.8 131.6 L252.3 132.4 L250.8 133.1 L249.3 133.9 L247.8 134.6 L246.3 135.4 L244.8 136.1 L243.3 136.9 L241.8 137.7 L240.5 138.6 L239.2 139.5 L237.8 140.5 L236.5 141.4 L235.2 142.3 L233.9 143.3 L232.6 144.2 L231.2 145.1 L229.8 145.9 L228.3 146.6 L226.8 147.4 L225.3 148.1 L223.8 148.9 L222.4 149.8 L221.1 150.7 L219.9 151.7 L218.7 152.8 L217.5 153.9 L216.3 154.9 L215.0 155.9 L213.7 156.8 L212.4 157.8 L211.1 158.7 L209.8 159.7 L208.5 160.6 L207.2 161.5 L205.8 162.5 L204.5 163.4 L203.2 164.3 L201.9 165.3 L200.6 166.2 L199.3 167.2 L198.0 168.1 L196.7 169.0 L195.3 170.0 L194.0 170.9 L192.7 171.8 L191.4 172.8 L190.1 173.7 L188.7 174.6 L187.3 175.4 L185.8 176.1 L184.4 177.0 L183.0 177.9 L181.7 178.8 L180.4 179.8 L179.1 180.7 L177.8 181.7 L176.5 182.6 L175.2 183.5 L173.8 184.5 L172.5 185.4 L171.2 186.3 L169.7 187.1 L168.3 187.9 L166.8 188.6 L165.3 189.4 L163.8 190.1 L162.4 191.0 L161.0 191.9 L159.7 192.8 L158.4 193.8 L157.1 194.7 L155.8 195.7 L154.5 196.6 L153.2 197.5 L151.8 198.5 L150.5 199.4 L149.2 200.3 L147.7 201.1 L146.3 201.9 L144.8 202.6 L143.3 203.4 L141.8 204.1 L140.3 204.9 L138.8 205.6 L137.3 206.4 L135.9 207.3 L134.6 208.2 L133.3 209.2 L132.0 210.1 L130.6 211.0 L129.2 211.9 L127.8 212.6 L126.3 213.3 L124.8 213.8 L123.3 214.2 L121.8 214.6 L120.3 214.9 L118.8 215.3 L117.3 215.7 L115.8 216.1 L114.3 216.4 L112.8 216.8 L111.3 217.2 L109.8 217.7 L108.3 218.4 L106.8 219.1 L105.3 219.9 L103.8 220.6 L102.3 221.3 L100.8 221.8 L99.3 222.2 L97.8 222.7 L96.3 223.4 L94.8 224.0 L93.3 224.4 L91.8 224.5 L90.3 224.6 L88.8 224.8 L87.3 225.2 L85.8 225.7 L84.3 226.4 L82.8 227.1 L81.4 228.0 L80.0 228.9 L78.9 230.0 L77.9 231.3 L77.1 232.8 L76.4 234.3 L75.6 235.8 L75.0 237.3 L74.6 238.8 L74.5 240.3 L74.5 241.8 L74.5 243.3 L74.5 244.8 L74.5 246.3 L74.5 247.8 L74.5 249.3 L74.3 250.8 L73.9 252.3 L73.7 253.8 L73.5 255.3 L73.5 256.8 L73.5 258.3 L73.5 259.8 L73.5 261.3 L73.5 262.8 L73.5 264.3 L73.5 265.8 L73.5 267.3 L73.5 268.8 L73.7 270.3 L73.9 271.8 L74.3 273.3 L74.7 274.8 L75.1 276.3 L75.3 277.8 L75.5 279.3 L75.5 280.8 L75.7 282.3 L75.9 283.8 L76.3 285.3 L76.5 286.8 L76.5 288.3 L76.6 289.8 L76.8 291.3 L77.2 292.8 L77.7 294.3 L78.4 295.8 L79.1 297.3 L79.9 298.8 L80.6 300.3 L81.4 301.8 L82.1 303.3 L82.9 304.8 L83.5 306.3 L83.9 307.8 L84.3 309.3 L84.7 310.8 L85.1 312.3 L85.3 313.8 L85.5 315.3 L85.5 316.8 L85.7 318.3 L85.9 319.8 L86.3 321.3 L86.7 322.8 L87.1 324.3 L87.5 325.8 L88.1 327.3 L88.9 328.8 L89.6 330.3 L90.4 331.8 L91.1 333.3 L91.6 334.8 L92.1 336.3 L92.5 337.8 L93.1 339.3 L93.9 340.8 L94.6 342.3 L95.4 343.8 L96.1 345.3 L96.9 346.8 L97.6 348.3 L98.3 349.8 L98.8 351.3 L99.2 352.8 L99.6 354.3 L99.9 355.8 L100.3 357.3 L100.7 358.8 L101.1 360.3 L101.5 361.8 L102.1 363.3 L102.9 364.8 L103.5 366.3 L103.9 367.8 L104.4 369.3 L104.9 370.8 L105.6 372.3 L106.3 373.8 L106.8 375.3 L107.2 376.8 L107.7 378.3 L108.4 379.8 L109.1 381.3 L109.9 382.8 L110.6 384.3 L111.3 385.8 L111.8 387.3 L112.2 388.8 L112.7 390.3 L113.4 391.8 L114.1 393.3 L114.9 394.8 L115.6 396.3 L116.3 397.8 L116.8 399.3 L117.2 400.8 L117.6 402.3 L117.9 403.8 L118.3 405.3 L118.7 406.8 L119.1 408.3 L119.4 409.8 L119.8 411.3 L120.2 412.8 L120.6 414.3 L120.9 415.8 L121.4 417.3 L121.9 418.8 L122.6 420.3 L123.4 421.7 L124.3 423.1 L125.2 424.4 L126.2 425.6 L127.3 426.8 L128.4 428.0 L129.4 429.2 L130.4 430.5 L131.2 431.8 L131.8 433.3 L132.2 434.7 L132.8 436.2 L133.6 437.5 L134.5 438.8 L135.5 440.2 L136.4 441.5 L137.3 442.8 L138.1 444.3 L138.9 445.8 L139.6 447.3 L140.4 448.8 L141.1 450.3 L141.9 451.8 L142.6 453.3 L143.3 454.8 L143.8 456.3 L144.2 457.7 L144.8 459.2 L145.6 460.5 L146.5 461.8 L147.5 463.2 L148.4 464.5 L149.3 465.8 L150.3 467.1 L151.2 468.4 L152.2 469.7 L153.1 471.0 L154.0 472.4 L154.9 473.8 L155.6 475.3 L156.4 476.7 L157.3 478.1 L158.2 479.4 L159.2 480.7 L160.1 482.0 L161.1 483.3 L162.2 484.4 L163.5 485.4 L164.8 486.3 L166.1 487.3 L167.4 488.2 L168.7 489.2 L170.0 490.1 L171.4 491.0 L172.8 491.9 L174.3 492.6 L175.7 493.4 L177.1 494.3 L178.4 495.2 L179.6 496.2 L180.8 497.3 L181.9 498.4 L183.1 499.6 L184.2 500.7 L185.3 501.8 L186.4 502.9 L187.6 504.1 L188.7 505.2 L189.8 506.3 L191.0 507.4 L192.2 508.4 L193.5 509.4 L194.8 510.3 L196.1 511.3 L197.4 512.2 L198.8 513.1 L200.3 513.9 L201.8 514.6 L203.4 515.3 L205.0 515.8 L206.6 516.5 L208.1 517.3 L209.4 518.2 L210.7 519.2 L212.0 520.1 L213.3 521.1 L214.5 522.1 L215.7 523.2 L216.9 524.3 L218.1 525.3 L219.4 526.2 L220.7 527.2 L222.0 528.1 L223.4 529.0 L224.8 529.9 L226.3 530.6 L227.8 531.4 L229.3 532.1 L230.8 532.9 L232.3 533.5 L233.8 533.9 L235.3 534.4 L236.8 534.9 L238.3 535.6 L239.8 536.4 L241.3 537.1 L242.7 537.9 L244.0 538.9 L245.1 540.0 L246.0 541.3 L247.0 542.7 L247.9 544.0 L248.8 545.3 L249.6 546.8 L250.4 548.2 L251.2 549.7 L252.1 551.0 L253.0 552.4 L253.9 553.8 L254.6 555.3 L255.4 556.8 L256.1 558.3 L256.9 559.8 L257.6 561.3 L258.4 562.8 L259.2 564.2 L260.1 565.5 L261.2 566.7 L262.2 567.9 L263.1 569.3 L263.9 570.7 L264.7 572.2 L265.6 573.5 L266.5 574.8 L267.5 576.2 L268.4 577.5 L269.3 578.8 L270.3 580.1 L271.2 581.4 L272.1 582.8 L272.9 584.3 L273.6 585.7 L274.5 587.1 L275.4 588.5 L276.3 589.8 L277.3 591.1 L278.2 592.4 L279.2 593.6 L280.3 594.8 L281.4 595.9 L282.6 597.1 L283.7 598.2 L284.8 599.3 L285.9 600.4 L287.1 601.6 L288.2 602.7 L289.3 603.8 L290.4 604.9 L291.6 606.1 L292.7 607.2 L293.8 608.4 L294.8 609.6 L295.7 610.9 L296.7 612.1 L297.8 613.3 L298.9 614.4 L300.1 615.6 L301.2 616.7 L302.4 617.8 L303.6 618.8 L304.9 619.7 L306.2 620.7 L307.5 621.6 L308.8 622.6 L309.9 623.7 L310.9 625.0 L311.8 626.3 L312.8 627.6 L313.7 628.9 L314.7 630.1 L315.8 631.3 L317.0 632.4 L318.2 633.4 L319.5 634.4 L320.7 635.4 L321.9 636.4 L323.1 637.6 L324.1 638.8 L325.1 640.0 L326.1 641.3 L327.1 642.5 L328.2 643.7 L329.4 644.8 L330.6 645.8 L331.9 646.7 L333.1 647.7 L334.3 648.8 L335.5 649.9 L336.7 650.9 L338.0 651.9 L339.4 652.8 L340.9 653.5 L342.6 654.0 L344.2 654.7 L345.8 655.4 L347.3 656.1 L348.8 656.9 L350.3 657.6 L351.7 658.4 L353.1 659.3 L354.4 660.2 L355.8 661.1 L357.3 661.9 L358.8 662.6 L360.4 663.3 L362.0 663.8 L363.7 664.5 L365.2 665.1 L366.7 665.9 L368.2 666.7 L369.5 667.6 L370.9 668.5 L372.3 669.4 L373.8 670.1 L375.3 670.9 L376.8 671.6 L378.3 672.4 L379.8 673.1 L381.3 673.9 L382.8 674.6 L384.4 675.3 L386.0 675.8 L387.7 676.5 L389.2 677.1 L390.8 677.9 L392.3 678.5 L393.8 678.9 L395.3 679.3 L396.8 679.7 L398.3 680.1 L399.8 680.5 L401.3 681.1 L402.8 681.9 L404.3 682.6 L405.8 683.4 L407.3 684.1 L408.8 684.6 L410.3 685.1 L411.8 685.4 L413.3 685.8 L414.8 686.2 L416.3 686.4 L417.8 686.5 L419.3 686.5 L420.8 686.5 L422.3 686.5 L423.8 686.6 L425.3 686.8 L426.8 687.2 L428.3 687.4 L429.8 687.5 L431.3 687.5 L432.8 687.7 L434.3 688.1 L435.8 688.4 L437.3 688.8 L438.8 689.2 L440.3 689.4 L441.8 689.5 L443.3 689.5 L444.8 689.5 L446.3 689.5 L447.8 689.5 L449.3 689.5 L450.8 689.5 L452.3 689.5 L453.8 689.5 L455.3 689.5 L456.8 689.5 L458.3 689.5 L459.8 689.5 L461.3 689.5 L462.8 689.5 L464.3 689.5 L465.8 689.5 L467.3 689.6 L468.8 690.0 L470.3 690.6 L471.7 691.5 L472.9 692.5 L474.1 693.6 L475.1 694.8 L476.1 696.0 L477.0 697.4 L477.9 698.8 L478.6 700.3 L479.1 701.8 L479.1 703.3 L478.8 704.8 L478.4 706.3 L478.1 707.8 L477.7 709.3 L477.5 710.8 L477.5 712.3 L477.5 713.8 L477.5 715.3 L477.5 716.8 L477.7 718.3 L477.9 719.8 L478.3 721.3 L478.5 722.8 L478.5 724.3 L478.5 725.8 L478.5 727.3 L478.5 728.8 L478.5 730.3 L478.5 731.8 L478.5 733.3 L478.5 734.8 L478.5 736.3 L478.7 737.8 L479.2 739.3 L479.9 740.8 L480.6 742.3 L481.4 743.8 L482.1 745.3 L482.6 746.8 L483.1 748.3 L483.3 749.8 L483.5 751.3 L483.5 752.8 L483.5 754.3 L483.5 755.8 L483.5 757.3 L483.5 758.8 L483.5 760.3 L483.6 761.8 L483.8 763.3 L484.2 764.8 L484.6 766.3 L484.9 767.8 L485.4 769.2 L486.0 770.6 L486.9 772.0 L487.9 773.2 L488.9 774.4 L490.1 775.6 L491.2 776.7 L492.3 777.8 L493.5 778.9 L494.7 779.9 L496.0 780.9 L497.3 781.8 L498.6 782.8 L499.9 783.7 L501.3 784.4 L502.8 784.9 L504.3 785.3 L505.8 785.7 L507.3 786.1 L508.8 786.3 L510.3 786.5 L511.8 786.5 L513.3 786.5 L514.8 786.5 L516.3 786.6 L517.8 787.0 L519.3 787.6 L520.8 788.3 L522.3 788.8 L523.8 789.2 L525.3 789.6 L526.8 789.9 L528.3 790.3 L529.8 790.5 L531.3 790.5 L532.8 790.6 L534.3 790.8 L535.8 791.2 L537.3 791.4 L538.8 791.5 L540.3 791.5 L541.8 791.5 L543.3 791.5 L544.8 791.6 L546.3 791.8 L547.8 792.2 L549.3 792.7 L550.8 793.4 L552.3 794.0 L553.8 794.4 L555.3 794.5 L556.8 794.5 L558.3 794.5 L559.8 794.5 L561.3 794.5 L562.8 794.5 L564.3 794.5 L565.8 794.3 L567.3 793.9 L568.8 793.7 L570.3 793.5 L571.8 793.5 L573.3 793.5 L574.8 793.5 L576.3 793.5 L577.8 793.3 L579.3 792.9 L580.8 792.7 L582.3 792.5 L583.8 792.5 L585.3 792.2 L586.8 791.6 L588.3 790.9 L589.8 790.1 L591.3 789.4 L592.7 788.6 L594.1 787.7 L595.4 786.8 L596.6 785.8 L597.8 784.7 L598.9 783.6 L600.1 782.4 L601.2 781.3 L602.3 780.1 L603.3 778.9 L604.2 777.6 L605.2 776.4 L606.3 775.2 L607.4 774.1 L608.6 772.9 L609.7 771.8 L610.8 770.6 L611.8 769.4 L612.7 768.1 L613.7 766.9 L614.8 765.7 L615.9 764.5 L616.8 763.2 L617.6 761.8 L618.4 760.3 L619.1 758.8 L619.9 757.3 L620.6 755.8 L621.4 754.3 L622.1 752.8 L623.0 751.4 L623.9 750.0 L624.8 748.6 L625.5 747.1 L626.0 745.4 L626.7 743.8 L627.4 742.3 L628.0 740.8 L628.4 739.3 L628.5 737.8 L628.5 736.3 L628.5 734.8 L628.5 733.3 L628.7 731.8 L628.9 730.3 L629.3 728.8 L629.5 727.3 L629.5 725.8 L629.5 724.3 L629.5 722.8 L629.5 721.3 L629.3 719.8 L629.1 718.3 L628.7 716.8 L628.5 715.3 L628.5 713.8 L628.4 712.3 L628.2 710.8 L627.8 709.3 L627.4 707.8 L627.1 706.3 L626.7 704.8 L626.3 703.3 L625.9 701.8 L625.6 700.3 L625.2 698.8 L624.8 697.3 L624.3 695.8 L623.6 694.3 L622.9 692.8 L622.4 691.3 L621.9 689.8 L621.5 688.3 L620.9 686.8 L620.1 685.3 L619.5 683.8 L619.1 682.3 L618.7 680.8 L618.3 679.3 L617.9 677.8 L617.8 676.3 L617.8 674.8 L618.2 673.3 L618.8 671.8 L619.6 670.5 L620.5 669.2 L621.5 667.8 L622.4 666.5 L623.4 665.3 L624.6 664.2 L625.9 663.3 L627.2 662.3 L628.5 661.4 L629.8 660.4 L631.0 659.4 L632.2 658.3 L633.4 657.2 L634.6 656.2 L635.9 655.3 L637.3 654.4 L638.8 653.6 L640.2 652.9 L641.6 652.0 L643.0 651.1 L644.3 650.2 L645.6 649.2 L646.9 648.3 L648.2 647.3 L649.5 646.4 L650.8 645.5 L652.2 644.5 L653.5 643.6 L654.8 642.7 L656.1 641.7 L657.4 640.8 L658.6 639.8 L659.8 638.7 L660.9 637.5 L661.9 636.3 L662.9 635.0 L663.9 633.8 L664.9 632.6 L666.1 631.4 L667.3 630.4 L668.5 629.4 L669.8 628.5 L671.2 627.5 L672.5 626.6 L673.8 625.8 L675.3 625.2 L676.8 624.8 L678.3 624.4 L679.8 624.1 L681.3 623.8 L682.8 623.8 L684.3 624.1 L685.8 624.3 L687.3 624.5 L688.8 624.5 L690.3 624.5 L691.8 624.5 L693.3 624.5 L694.8 624.5 L696.3 624.5 L697.8 624.5 L699.3 624.5 L700.8 624.5 L702.3 624.7 L703.8 624.9 L705.3 625.3 L706.8 625.7 L708.3 626.1 L709.8 626.3 L711.3 626.5 L712.8 626.5 L714.3 626.5 L715.8 626.5 L717.3 626.5 L718.8 626.3 L720.3 625.9 L721.8 625.7 L723.3 625.5 L724.8 625.5 L726.3 625.5 L727.8 625.5 L729.3 625.5 L730.8 625.3 L732.3 624.9 L733.8 624.6 L735.3 624.2 L736.8 623.8 L738.3 623.6 L739.8 623.5 L741.3 623.5 L742.8 623.5 L744.3 623.5 L745.8 623.4 L747.3 623.2 L748.8 622.8 L750.3 622.4 L751.8 622.1 L753.3 621.6 L754.8 621.1 L756.3 620.4 L757.8 619.7 L759.3 619.2 L760.7 618.8 L762.2 618.2 L763.5 617.4 L764.8 616.5 L766.2 615.5 L767.5 614.6 L768.7 613.6 L769.9 612.6 L771.1 611.4 L772.1 610.2 L773.1 609.0 L774.0 607.7 L775.0 606.3 L775.9 605.0 L776.9 603.8 L778.1 602.7 L779.4 601.8 L780.6 600.8 L781.8 599.7 L782.9 598.5 L783.8 597.2 L784.6 595.8 L785.4 594.3 L786.1 592.8 L786.9 591.3 L787.6 589.8 L788.4 588.3 L789.1 586.8 L790.0 585.4 L790.9 584.0 L791.8 582.7 L792.6 581.2 L793.4 579.7 L794.0 578.2 L794.7 576.5 L795.3 574.9 L796.0 573.4 L796.9 572.0 L797.8 570.6 L798.5 569.1 L799.0 567.4 L799.5 565.8 L799.9 564.3 L800.3 562.8 L800.5 561.3 L800.5 559.8 L800.6 558.3 L800.8 556.8 L801.2 555.3 L801.6 553.8 L801.9 552.3 L802.3 550.8 L802.5 549.3 L802.5 547.8 L802.6 546.3 L802.8 544.8 L803.2 543.3 L803.7 541.8 L804.4 540.3 L805.1 538.8 L805.6 537.3 L806.1 535.8 L806.4 534.3 L806.8 532.8 L807.2 531.3 L807.4 529.8 L807.5 528.3 L807.6 526.8 L808.0 525.3 L808.6 523.8 L809.2 522.3 L809.5 520.8 L809.5 519.3 L809.5 517.8 L809.5 516.3 L809.5 514.8 L809.5 513.3 L809.5 511.8 L809.5 510.3 L809.5 508.8 L809.5 507.3 L809.5 505.8 L809.5 504.3 L809.5 502.8 L809.5 501.3 L809.5 499.8 L809.5 498.3 L809.5 496.8 L809.5 495.3 L809.5 493.8 L809.5 492.3 L809.5 490.8 L809.7 489.3 L810.1 487.8 L810.5 486.3 L811.1 484.8 L811.9 483.3 L812.7 481.8 L813.6 480.5 L814.5 479.2 L815.5 477.8 L816.4 476.5 L817.3 475.2 L818.3 473.9 L819.2 472.6 L820.2 471.4 L821.3 470.2 L822.5 469.1 L823.7 468.1 L825.0 467.1 L826.4 466.3 L827.9 465.5 L829.6 465.0 L831.2 464.6 L832.8 464.5 L834.3 464.6 L835.8 465.0 L837.3 465.6 L838.7 466.4 L840.1 467.3 L841.4 468.2 L842.6 469.3 L843.6 470.5 L844.6 471.8 L845.6 473.0 L846.7 474.2 L847.8 475.4 L848.8 476.6 L849.7 477.9 L850.7 479.2 L851.6 480.5 L852.6 481.8 L853.6 483.0 L854.7 484.2 L855.9 485.3 L857.1 486.3 L858.4 487.2 L859.9 488.0 L861.5 488.7 L863.1 489.2 L864.7 489.9 L866.3 490.6 L867.8 491.4 L869.3 492.1 L870.8 492.8 L872.3 493.3 L873.8 493.5 L875.3 493.5 L876.8 493.3 L878.3 492.9 L879.8 492.6 L881.3 492.2 L882.8 491.8 L884.3 491.4 L885.8 491.1 L887.3 490.7 L888.8 490.3 L890.3 489.9 L891.8 489.5 L893.3 488.9 L894.7 488.1 L896.2 487.3 L897.5 486.4 L898.8 485.5 L900.2 484.5 L901.5 483.6 L902.7 482.6 L903.8 481.4 L904.7 480.1 L905.7 478.8 L906.6 477.5 L907.5 476.2 L908.5 474.8 L909.4 473.5 L910.3 472.2 L911.1 470.7 L911.9 469.3 L912.7 467.8 L913.6 466.5 L914.5 465.2 L915.5 463.8 L916.4 462.5 L917.3 461.2 L918.1 459.7 L918.9 458.3 L919.6 456.8 L920.4 455.3 L921.1 453.8 L921.6 452.3 L922.1 450.8 L922.5 449.3 L923.1 447.8 L923.9 446.3 L924.6 444.8 L925.4 443.3 L926.1 441.8 L926.6 440.3 L927.1 438.8 L927.4 437.3 L927.8 435.8 L928.2 434.3 L928.6 432.8 L928.9 431.3 L929.3 429.8 L929.7 428.3 L930.1 426.8 L930.5 425.3 L931.1 423.8 L931.9 422.3 L932.5 420.8 L932.9 419.3 L933.3 417.8 L933.5 416.3 L933.5 414.8 L933.5 413.3 L933.5 411.8 L933.5 410.3 L933.5 408.8 L933.5 407.3 L933.5 405.8 L933.5 404.3 L933.5 402.8 L933.5 401.3 L933.5 399.8 L933.5 398.3 L933.5 396.8 L933.5 395.3 L933.5 393.8 L933.5 392.3 L933.5 390.8 L933.6 389.3 L933.8 387.8 L934.2 386.3 L934.6 384.8 L934.9 383.3 L935.3 381.8 L935.5 380.3 L935.5 378.8 L935.6 377.3 L935.8 375.8 L936.2 374.3 L936.6 372.8 L936.9 371.3 L937.3 369.8 L937.5 368.3 L937.5 366.8 L937.5 365.3 L937.5 363.8 L937.5 362.3 L937.5 360.8 L937.5 359.3 L937.5 357.8 L937.5 356.3 L937.5 354.8 L937.6 353.3 L937.8 351.8 L938.2 350.3 L938.4 348.8 L938.5 347.3 L938.5 345.8 L938.5 344.3 L938.5 342.8 L938.5 341.3 L938.5 339.8 L938.5 338.3 L938.7 336.8 L938.9 335.3 L939.3 333.8 L939.7 332.3 L940.1 330.8 L940.3 329.3 L940.5 327.8 L940.5 326.3 L940.5 324.8 L940.5 323.3 L940.5 321.8 L940.5 320.3 L940.5 318.8 L940.6 317.3 L940.8 315.8 L941.2 314.3 L941.6 312.8 L941.9 311.3 L942.4 309.8 L942.9 308.3 L943.6 306.8 L944.2 305.3 L944.5 303.8 L944.5 302.3 L944.3 300.8 L944.1 299.3 L943.7 297.8 L943.5 296.3 L943.5 294.8 L943.5 293.3 L943.5 291.8 L943.5 290.3 L943.7 288.8 L943.9 287.3 L944.3 285.8 L944.5 284.3 L944.5 282.8 L944.6 281.3 L944.8 279.8 L945.2 278.3 L945.4 276.8 L945.5 275.3 L945.5 273.8 L945.7 272.3 L946.1 270.8 L946.4 269.3 L946.8 267.8 L947.2 266.3 L947.4 264.8 L947.5 263.3 L947.5 261.8 L947.7 260.3 L948.1 258.8 L948.4 257.3 L948.8 255.8 L949.2 254.3 L949.4 252.8 L949.5 251.3 L949.5 249.8 L949.5 248.3 L949.5 246.8 L949.5 245.3 L949.5 243.8 L949.5 242.3 L949.7 240.8 L949.9 239.3 L950.3 237.8 L950.5 236.3 L950.5 234.8 L950.5 233.3 L950.5 231.8 L950.5 230.3 L950.5 228.8 L950.5 227.3 L950.5 225.8 L950.5 224.3 L950.5 222.8 L950.5 221.3 L950.5 219.8 L950.5 218.3 L950.3 216.8 L950.1 215.3 L949.7 213.8 L949.3 212.3 L948.9 210.8 L948.7 209.3 L948.5 207.8 L948.5 206.3 L948.5 204.8 L948.5 203.3 L948.5 201.8 L948.3 200.3 L947.9 198.8 L947.6 197.3 L947.2 195.8 L946.8 194.3 L946.4 192.8 L946.1 191.3 L945.7 189.8 L945.3 188.3 L944.9 186.8 L944.6 185.3 L944.2 183.8 L943.8 182.3 L943.3 180.8 L942.6 179.3 L941.9 177.8 L941.1 176.3 L940.4 174.8 L939.7 173.3 L939.2 171.8 L938.8 170.3 L938.2 168.8 L937.4 167.5 L936.5 166.2 L935.5 164.8 L934.6 163.5 L933.6 162.3 L932.6 161.1 L931.4 159.9 L930.4 158.7 L929.4 157.5 L928.4 156.2 L927.4 155.0 L926.3 153.8 L925.2 152.7 L924.1 151.6 L922.9 150.4 L921.8 149.3 L920.7 148.2 L919.6 147.1 L918.4 145.9 L917.3 144.8 L916.2 143.7 L915.1 142.6 L913.9 141.4 L912.7 140.4 L911.5 139.4 L910.2 138.5 L908.8 137.5 L907.5 136.6 L906.2 135.7 L904.7 134.9 L903.3 134.1 L901.9 133.2 L900.7 132.2 L899.5 131.1 L898.2 130.2 L896.8 129.4 L895.3 128.6 L893.9 127.7 L892.6 126.8 L891.3 125.8 L890.0 124.9 L888.7 124.0 L887.3 123.0 L886.0 122.1 L884.7 121.2 L883.4 120.2 L882.1 119.3 L880.8 118.3 L879.5 117.4 L878.2 116.4 L877.0 115.4 L875.8 114.3 L874.7 113.2 L873.6 112.1 L872.4 110.9 L871.4 109.7 L870.4 108.5 L869.5 107.2 L868.5 105.8 L867.6 104.5 L866.7 103.2 L865.7 101.9 L864.8 100.6 L863.8 99.4 L862.7 98.2 L861.5 97.1 L860.3 96.1 L859.0 95.1 L857.7 94.2 L856.4 93.2 L855.1 92.3 L853.7 91.4 L852.3 90.6 L850.8 89.9 L849.3 89.4 L847.8 88.9 L846.3 88.7 L844.8 88.5 L843.3 88.5 L841.8 88.5 L840.3 88.5 L838.8 88.5 L837.3 88.5 L835.8 88.5 L834.3 88.5 L832.8 88.5 L831.3 88.5 L829.8 88.5 L828.3 88.5 L826.8 88.5 L825.3 88.7 L823.8 89.1 L822.3 89.4 L820.8 89.8 L819.3 90.2 L817.8 90.6 L816.3 90.9 L814.8 91.3 L813.3 91.5 L811.8 91.5 L810.3 91.5 L808.8 91.5 L807.3 91.5 L805.8 91.3 L804.3 91.1 L802.8 90.7 L801.3 90.5 L799.8 90.5 L798.3 90.7 L796.8 91.2 L795.3 91.9 L793.8 92.6 L792.3 93.4 L790.8 94.2 L789.5 95.1 L788.3 96.2 L787.1 97.2 L785.7 98.1 L784.3 98.9 L782.8 99.5 L781.3 99.9 L779.8 100.2 L778.3 100.2 L776.8 99.9 L775.3 99.4 L773.9 98.7 L772.6 97.8 L771.3 96.8 L770.0 95.9 L768.6 95.0 L767.2 94.4 L765.8 93.9 L764.3 93.6 L762.8 93.2 L761.3 92.8 L759.8 92.6 L758.3 92.5 L756.8 92.5 L755.3 92.3 L753.8 91.9 L752.3 91.4 L750.9 90.7 L749.6 89.8 L748.3 88.8 L747.0 87.9 L745.7 87.0 L744.3 86.0 L743.0 85.1 L741.8 84.1 L740.6 83.1 L739.4 81.9 L738.2 80.9 L737.0 79.9 L735.7 79.0 L734.3 78.0 L733.0 77.1 L731.7 76.2 L730.4 75.2 L729.1 74.3 L727.8 73.3 L726.5 72.4 L725.2 71.5 L723.8 70.5 L722.5 69.6 L721.2 68.7 L719.9 67.7 L718.6 66.8 L717.3 65.8 L716.0 64.9 L714.7 64.0 L713.3 63.0 L712.0 62.1 L710.7 61.2 L709.4 60.2 L708.1 59.3 L706.7 58.4 L705.3 57.6 L703.8 56.9 L702.3 56.1 L700.8 55.4 L699.3 54.6 L697.8 53.9 L696.3 53.1 L694.8 52.5 L693.3 52.1 L691.8 51.7 L690.3 51.3 L688.8 50.9 L687.3 50.6 L685.8 50.2 L684.3 49.8 L682.8 49.4 L681.3 49.1 L679.8 48.7 L678.3 48.5 L676.8 48.5 L675.3 48.3 L673.8 47.8 L672.3 47.1 L670.8 46.5 L669.3 46.1 L667.8 45.7 L666.3 45.3 L664.8 44.9 L663.3 44.7 L661.8 44.5 L660.3 44.5 L658.8 44.5 L657.3 44.5 L655.8 44.5 L654.3 44.5 L652.8 44.5 L651.3 44.4 L649.8 44.2 L648.3 43.8 L646.8 43.4 L645.3 43.1 L643.8 42.7 L642.3 42.5 L640.8 42.5 L639.3 42.7 L637.8 43.2 Z M643.5 76.8 L645.1 76.7 L646.7 76.8 L648.3 77.1 L649.8 77.5 L651.3 78.1 L652.8 78.9 L654.3 79.5 L655.8 79.9 L657.3 80.2 L658.8 80.2 L660.3 79.9 L661.8 79.5 L663.3 78.9 L664.8 78.1 L666.3 77.5 L667.8 77.1 L669.3 76.7 L670.8 76.5 L672.3 76.5 L673.8 76.7 L675.3 77.2 L676.8 77.9 L678.3 78.6 L679.8 79.4 L681.3 80.1 L682.8 80.9 L684.3 81.6 L685.8 82.3 L687.3 82.8 L688.8 83.2 L690.3 83.7 L691.8 84.4 L693.2 85.1 L694.6 86.0 L696.0 86.9 L697.3 87.8 L698.6 88.8 L699.9 89.7 L701.1 90.7 L702.3 91.8 L703.4 92.9 L704.6 94.1 L705.7 95.2 L706.9 96.3 L708.1 97.3 L709.4 98.2 L710.7 99.2 L712.0 100.1 L713.4 101.0 L714.8 101.6 L716.3 102.1 L717.8 102.5 L719.3 103.1 L720.8 103.9 L722.3 104.5 L723.8 104.9 L725.2 105.4 L726.6 106.0 L728.0 106.9 L729.3 107.8 L730.6 108.8 L731.9 109.7 L733.3 110.6 L734.8 111.4 L736.3 112.1 L737.8 112.9 L739.3 113.6 L740.7 114.4 L742.1 115.3 L743.4 116.2 L744.7 117.2 L746.0 118.1 L747.4 119.0 L748.8 119.9 L750.3 120.6 L751.7 121.4 L753.1 122.3 L754.4 123.2 L755.8 124.1 L757.3 124.9 L758.8 125.6 L760.4 126.3 L762.0 126.8 L763.7 127.3 L765.2 127.5 L766.8 127.5 L768.3 127.5 L769.8 127.5 L771.3 127.5 L772.8 127.7 L774.3 128.1 L775.8 128.4 L777.3 128.8 L778.8 129.2 L780.3 129.6 L781.8 129.9 L783.3 130.3 L784.8 130.5 L786.3 130.5 L787.8 130.4 L789.3 130.2 L790.8 129.8 L792.3 129.3 L793.8 128.6 L795.3 127.9 L796.8 127.4 L798.3 126.9 L799.8 126.6 L801.3 126.2 L802.8 125.8 L804.3 125.4 L805.8 125.1 L807.3 124.7 L808.8 124.3 L810.3 123.9 L811.8 123.7 L813.3 123.5 L814.8 123.5 L816.3 123.3 L817.8 123.1 L819.3 122.7 L820.8 122.3 L822.3 121.9 L823.8 121.7 L825.3 121.5 L826.8 121.5 L828.3 121.5 L829.8 121.5 L831.3 121.5 L832.8 121.7 L834.3 122.1 L835.8 122.5 L837.3 123.1 L838.8 123.9 L840.3 124.6 L841.8 125.4 L843.2 126.1 L844.6 127.0 L846.0 127.9 L847.3 128.8 L848.6 129.8 L849.9 130.7 L851.2 131.7 L852.5 132.6 L853.8 133.6 L855.0 134.6 L856.2 135.7 L857.3 136.8 L858.4 137.9 L859.6 139.1 L860.7 140.2 L861.8 141.3 L862.9 142.4 L864.1 143.6 L865.2 144.7 L866.3 145.8 L867.4 146.9 L868.6 148.1 L869.7 149.2 L870.8 150.3 L871.9 151.4 L873.1 152.6 L874.2 153.7 L875.3 154.8 L876.4 155.9 L877.6 157.1 L878.6 158.3 L879.6 159.5 L880.5 160.8 L881.5 162.2 L882.4 163.5 L883.4 164.7 L884.4 165.9 L885.6 167.1 L886.7 168.2 L887.8 169.3 L889.0 170.4 L890.2 171.4 L891.5 172.4 L892.8 173.2 L894.3 173.8 L895.7 174.2 L897.2 174.8 L898.5 175.6 L899.8 176.5 L901.2 177.5 L902.5 178.4 L903.7 179.4 L904.8 180.6 L905.7 181.9 L906.7 183.2 L907.6 184.5 L908.5 185.9 L909.2 187.4 L909.8 189.0 L910.4 190.7 L910.8 192.2 L911.2 193.8 L911.4 195.3 L911.5 196.8 L911.5 198.3 L911.5 199.8 L911.5 201.3 L911.5 202.8 L911.5 204.3 L911.5 205.8 L911.5 207.3 L911.5 208.8 L911.5 210.3 L911.5 211.8 L911.5 213.3 L911.7 214.8 L912.2 216.3 L912.9 217.8 L913.5 219.3 L913.9 220.8 L914.3 222.3 L914.7 223.8 L915.1 225.3 L915.3 226.8 L915.5 228.3 L915.5 229.8 L915.5 231.3 L915.5 232.8 L915.5 234.3 L915.5 235.8 L915.5 237.3 L915.5 238.8 L915.5 240.3 L915.5 241.8 L915.5 243.3 L915.5 244.8 L915.6 246.3 L916.0 247.8 L916.6 249.3 L917.3 250.8 L917.8 252.3 L918.2 253.8 L918.4 255.3 L918.5 256.8 L918.5 258.3 L918.5 259.8 L918.5 261.3 L918.5 262.8 L918.5 264.3 L918.5 265.8 L918.3 267.3 L918.1 268.8 L917.7 270.3 L917.3 271.8 L916.9 273.3 L916.7 274.8 L916.5 276.3 L916.5 277.8 L916.5 279.3 L916.5 280.8 L916.5 282.3 L916.3 283.8 L915.9 285.3 L915.6 286.8 L915.2 288.3 L914.8 289.8 L914.6 291.3 L914.5 292.8 L914.5 294.3 L914.3 295.8 L913.9 297.3 L913.6 298.8 L913.2 300.3 L912.8 301.8 L912.6 303.3 L912.5 304.8 L912.5 306.3 L912.3 307.8 L911.9 309.3 L911.6 310.8 L911.2 312.3 L910.8 313.8 L910.6 315.3 L910.5 316.8 L910.5 318.3 L910.3 319.8 L909.9 321.3 L909.6 322.8 L909.2 324.3 L908.8 325.8 L908.4 327.3 L908.1 328.8 L907.7 330.3 L907.3 331.8 L906.9 333.3 L906.6 334.8 L906.2 336.3 L905.8 337.8 L905.4 339.3 L905.1 340.8 L904.7 342.3 L904.5 343.8 L904.5 345.3 L904.4 346.8 L904.2 348.3 L903.8 349.8 L903.6 351.3 L903.5 352.8 L903.5 354.3 L903.3 355.8 L902.9 357.3 L902.6 358.8 L902.2 360.3 L901.8 361.8 L901.6 363.3 L901.5 364.8 L901.5 366.3 L901.3 367.8 L900.9 369.3 L900.7 370.8 L900.5 372.3 L900.5 373.8 L900.5 375.3 L900.5 376.8 L900.5 378.3 L900.5 379.8 L900.5 381.3 L900.4 382.8 L900.2 384.3 L899.8 385.8 L899.3 387.3 L898.6 388.8 L897.9 390.3 L897.1 391.8 L896.4 393.3 L895.7 394.8 L895.2 396.3 L894.8 397.8 L894.6 399.3 L894.5 400.8 L894.5 402.3 L894.5 403.8 L894.5 405.3 L894.4 406.8 L894.2 408.3 L893.8 409.8 L893.6 411.3 L893.5 412.8 L893.5 414.3 L893.5 415.8 L893.5 417.3 L893.3 418.8 L892.8 420.3 L892.1 421.8 L891.5 423.3 L891.1 424.8 L890.7 426.3 L890.5 427.8 L890.5 429.3 L890.4 430.8 L890.2 432.3 L889.8 433.8 L889.3 435.3 L888.6 436.8 L887.9 438.2 L887.0 439.6 L886.1 441.0 L885.1 442.2 L883.9 443.3 L882.6 444.2 L881.1 445.0 L879.5 445.7 L877.9 446.1 L876.3 446.4 L874.8 446.5 L873.3 446.3 L871.8 445.8 L870.3 445.1 L868.8 444.3 L867.5 443.4 L866.2 442.4 L865.0 441.4 L863.8 440.3 L862.7 439.2 L861.6 438.1 L860.4 436.9 L859.4 435.7 L858.4 434.5 L857.5 433.2 L856.5 431.8 L855.6 430.5 L854.8 429.2 L854.2 427.7 L853.8 426.3 L853.4 424.8 L853.1 423.3 L852.8 421.8 L852.8 420.3 L853.1 418.8 L853.4 417.3 L853.8 415.8 L854.2 414.3 L854.6 412.8 L854.9 411.3 L855.3 409.8 L855.5 408.3 L855.5 406.8 L855.5 405.3 L855.5 403.8 L855.5 402.3 L855.5 400.8 L855.5 399.3 L855.5 397.8 L855.3 396.3 L854.9 394.8 L854.6 393.3 L854.2 391.8 L853.8 390.3 L853.6 388.8 L853.5 387.3 L853.5 385.8 L853.5 384.3 L853.5 382.8 L853.5 381.3 L853.5 379.8 L853.5 378.3 L853.3 376.8 L853.1 375.3 L852.7 373.8 L852.3 372.3 L851.9 370.8 L851.6 369.3 L851.2 367.8 L850.8 366.3 L850.3 364.8 L849.6 363.3 L848.9 361.8 L848.4 360.3 L847.9 358.8 L847.5 357.3 L846.9 355.8 L846.1 354.3 L845.4 352.8 L844.6 351.3 L843.9 349.8 L843.4 348.3 L842.9 346.8 L842.6 345.3 L842.2 343.8 L841.8 342.3 L841.4 340.8 L841.1 339.3 L840.6 337.8 L840.1 336.3 L839.4 334.8 L838.7 333.3 L838.2 331.8 L837.8 330.3 L837.2 328.8 L836.4 327.5 L835.5 326.2 L834.5 324.8 L833.6 323.5 L832.7 322.2 L831.7 320.9 L830.8 319.6 L829.8 318.3 L828.9 317.0 L827.9 315.7 L826.9 314.5 L825.8 313.3 L824.7 312.1 L823.7 310.9 L822.8 309.6 L821.8 308.3 L820.9 307.0 L820.0 305.6 L819.4 304.2 L818.9 302.8 L818.7 301.3 L818.5 299.8 L818.5 298.3 L818.5 296.8 L818.5 295.3 L818.5 293.8 L818.5 292.3 L818.5 290.8 L818.6 289.3 L818.8 287.8 L819.2 286.3 L819.7 284.8 L820.4 283.3 L821.1 281.8 L821.6 280.3 L822.1 278.8 L822.3 277.3 L822.5 275.8 L822.5 274.3 L822.5 272.8 L822.5 271.3 L822.5 269.8 L822.5 268.3 L822.5 266.8 L822.5 265.3 L822.5 263.8 L822.5 262.3 L822.5 260.8 L822.5 259.3 L822.5 257.8 L822.5 256.3 L822.5 254.8 L822.5 253.3 L822.5 251.8 L822.5 250.3 L822.3 248.8 L822.1 247.3 L821.7 245.8 L821.5 244.3 L821.5 242.8 L821.5 241.3 L821.5 239.8 L821.5 238.3 L821.3 236.8 L821.1 235.3 L820.7 233.8 L820.3 232.3 L819.9 230.8 L819.6 229.3 L819.2 227.8 L818.8 226.3 L818.3 224.8 L817.6 223.3 L816.9 221.8 L816.1 220.3 L815.4 218.8 L814.7 217.3 L814.2 215.8 L813.8 214.3 L813.3 212.8 L812.6 211.3 L811.9 209.8 L811.4 208.3 L810.9 206.8 L810.6 205.3 L810.2 203.8 L809.8 202.3 L809.4 200.8 L809.1 199.3 L808.7 197.8 L808.3 196.3 L807.9 194.8 L807.6 193.3 L807.2 191.8 L806.8 190.3 L806.2 188.8 L805.4 187.5 L804.4 186.2 L803.4 185.0 L802.3 183.8 L801.2 182.7 L800.1 181.6 L798.9 180.4 L797.8 179.3 L796.7 178.2 L795.5 177.1 L794.3 176.1 L793.0 175.1 L791.6 174.3 L790.1 173.5 L788.4 173.0 L786.8 172.6 L785.3 172.5 L783.8 172.6 L782.3 173.0 L780.8 173.6 L779.3 174.4 L777.9 175.3 L776.6 176.2 L775.4 177.3 L774.4 178.5 L773.5 179.9 L772.8 181.4 L772.2 183.0 L771.7 184.7 L771.5 186.2 L771.5 187.8 L771.5 189.3 L771.5 190.8 L771.5 192.3 L771.7 193.8 L772.1 195.3 L772.4 196.8 L772.8 198.3 L773.2 199.8 L773.6 201.3 L773.9 202.8 L774.3 204.3 L774.7 205.8 L775.1 207.3 L775.4 208.8 L775.8 210.3 L776.2 211.8 L776.7 213.3 L777.4 214.8 L778.0 216.3 L778.4 217.8 L778.5 219.3 L778.6 220.8 L778.8 222.3 L779.2 223.8 L779.4 225.3 L779.5 226.8 L779.5 228.3 L779.5 229.8 L779.5 231.3 L779.5 232.8 L779.5 234.3 L779.5 235.8 L779.5 237.3 L779.5 238.8 L779.4 240.3 L779.0 241.8 L778.4 243.3 L777.8 244.8 L777.5 246.3 L777.5 247.8 L777.3 249.3 L777.1 250.8 L776.6 252.2 L776.0 253.6 L775.1 255.0 L774.2 256.3 L773.4 257.8 L772.6 259.2 L771.8 260.7 L770.9 262.0 L769.9 263.3 L768.8 264.4 L767.5 265.4 L766.2 266.2 L764.7 266.8 L763.3 267.2 L761.8 267.3 L760.3 267.1 L758.8 266.6 L757.3 266.1 L755.8 265.4 L754.3 264.6 L752.9 263.7 L751.6 262.8 L750.1 262.0 L748.5 261.3 L746.9 260.8 L745.3 260.3 L743.8 259.9 L742.3 259.6 L740.8 259.2 L739.3 258.8 L737.8 258.4 L736.3 258.1 L734.8 257.6 L733.3 257.1 L731.8 256.4 L730.3 255.5 L729.1 254.5 L727.9 253.4 L726.9 252.2 L725.9 251.0 L725.0 249.6 L724.4 248.2 L723.9 246.8 L723.7 245.3 L723.5 243.8 L723.5 242.3 L723.7 240.8 L723.9 239.3 L724.3 237.8 L724.5 236.3 L724.5 234.8 L724.5 233.3 L724.5 231.8 L724.5 230.3 L724.3 228.8 L724.1 227.3 L723.7 225.8 L723.5 224.3 L723.5 222.8 L723.5 221.3 L723.5 219.8 L723.5 218.3 L723.5 216.8 L723.5 215.3 L723.5 213.8 L723.5 212.3 L723.5 210.8 L723.5 209.3 L723.5 207.8 L723.5 206.3 L723.3 204.8 L723.1 203.3 L722.6 201.8 L722.1 200.3 L721.4 198.8 L720.6 197.3 L719.7 195.9 L718.8 194.6 L717.8 193.3 L716.9 192.0 L715.9 190.7 L714.8 189.6 L713.5 188.6 L712.2 187.7 L710.9 186.7 L709.6 185.8 L708.1 185.0 L706.5 184.3 L704.9 183.8 L703.3 183.3 L701.8 182.9 L700.3 182.7 L698.8 182.5 L697.3 182.5 L695.8 182.5 L694.3 182.5 L692.8 182.5 L691.3 182.7 L689.8 183.1 L688.3 183.4 L686.8 183.8 L685.3 184.2 L683.8 184.6 L682.3 184.9 L680.8 185.3 L679.3 185.5 L677.8 185.5 L676.3 185.5 L674.8 185.5 L673.3 185.5 L671.8 185.5 L670.3 185.5 L668.8 185.5 L667.3 185.7 L665.8 186.1 L664.3 186.5 L662.8 187.1 L661.3 187.9 L659.8 188.7 L658.5 189.6 L657.2 190.6 L656.1 191.7 L655.1 193.0 L654.2 194.3 L653.2 195.6 L652.3 196.9 L651.4 198.3 L650.6 199.8 L649.9 201.3 L649.4 202.8 L648.9 204.3 L648.6 205.8 L648.2 207.3 L647.8 208.7 L647.2 210.2 L646.4 211.5 L645.5 212.8 L644.5 214.2 L643.6 215.5 L642.7 216.8 L641.9 218.3 L641.1 219.8 L640.4 221.3 L639.6 222.8 L639.0 224.3 L638.6 225.8 L638.5 227.3 L638.6 228.8 L638.8 230.3 L639.2 231.8 L639.7 233.3 L640.4 234.8 L641.1 236.3 L641.6 237.8 L642.1 239.3 L642.5 240.8 L643.1 242.3 L643.9 243.8 L644.5 245.3 L644.9 246.8 L645.2 248.3 L645.2 249.8 L644.9 251.3 L644.5 252.8 L643.9 254.3 L643.1 255.7 L642.2 257.1 L641.2 258.3 L640.0 259.4 L638.8 260.4 L637.5 261.4 L636.2 262.2 L634.7 262.8 L633.3 263.2 L631.8 263.6 L630.3 263.9 L628.8 264.4 L627.3 264.9 L625.8 265.6 L624.3 266.3 L622.8 266.8 L621.3 267.2 L619.8 267.8 L618.5 268.6 L617.2 269.6 L616.0 270.6 L614.8 271.7 L613.6 272.8 L612.4 273.8 L611.1 274.7 L609.8 275.7 L608.5 276.6 L607.1 277.5 L605.6 278.2 L604.0 278.8 L602.3 279.5 L600.8 280.1 L599.3 280.9 L597.8 281.6 L596.3 282.4 L594.8 283.1 L593.4 284.0 L592.0 284.9 L590.8 285.9 L589.6 286.9 L588.5 288.1 L587.5 289.3 L586.6 290.8 L585.9 292.2 L585.0 293.6 L584.1 295.0 L583.2 296.3 L582.4 297.8 L581.6 299.3 L581.0 300.8 L580.3 302.5 L579.9 304.1 L579.6 305.7 L579.5 307.3 L579.6 308.8 L579.8 310.3 L580.2 311.8 L580.7 313.3 L581.4 314.8 L582.1 316.2 L583.0 317.6 L583.9 319.0 L584.8 320.3 L585.8 321.6 L586.7 322.9 L587.7 324.2 L588.6 325.5 L589.6 326.8 L590.6 328.0 L591.7 329.2 L592.8 330.3 L593.9 331.4 L595.1 332.6 L596.1 333.8 L597.1 335.0 L598.1 336.3 L599.1 337.5 L600.2 338.7 L601.3 339.8 L602.4 340.9 L603.6 342.1 L604.6 343.3 L605.6 344.5 L606.5 345.8 L607.5 347.2 L608.4 348.5 L609.3 349.8 L610.3 351.1 L611.2 352.4 L612.2 353.7 L613.1 355.0 L614.0 356.3 L615.0 357.7 L615.9 359.0 L616.9 360.2 L618.1 361.3 L619.4 362.2 L620.6 363.2 L621.8 364.3 L623.0 365.4 L624.2 366.4 L625.5 367.4 L626.7 368.4 L627.9 369.4 L629.1 370.6 L630.2 371.7 L631.3 372.8 L632.5 373.9 L633.8 374.8 L635.3 375.6 L636.7 376.4 L638.1 377.3 L639.4 378.2 L640.7 379.2 L642.0 380.1 L643.3 381.0 L644.7 382.0 L646.0 382.9 L647.3 383.8 L648.6 384.8 L649.9 385.7 L651.2 386.7 L652.5 387.6 L653.8 388.5 L655.2 389.5 L656.5 390.4 L657.7 391.4 L658.9 392.4 L660.1 393.6 L661.1 394.8 L662.1 396.0 L663.0 397.4 L663.6 398.8 L664.1 400.3 L664.4 401.8 L664.8 403.3 L665.2 404.8 L665.4 406.3 L665.5 407.8 L665.5 409.3 L665.3 410.8 L664.9 412.3 L664.5 413.8 L663.9 415.3 L663.1 416.8 L662.4 418.3 L661.6 419.8 L660.9 421.3 L660.4 422.8 L659.9 424.3 L659.6 425.8 L659.2 427.3 L658.8 428.8 L658.8 430.3 L658.9 431.8 L659.4 433.2 L660.0 434.6 L660.9 436.0 L661.8 437.3 L662.8 438.6 L663.7 439.9 L664.7 441.2 L665.6 442.5 L666.5 443.9 L667.2 445.4 L667.8 447.0 L668.4 448.7 L668.8 450.2 L669.1 451.8 L669.1 453.3 L668.6 454.8 L667.9 456.3 L667.1 457.8 L666.4 459.3 L665.6 460.7 L664.7 462.1 L663.8 463.4 L662.8 464.7 L661.9 466.0 L660.9 467.3 L659.9 468.5 L658.8 469.7 L657.7 470.8 L656.6 471.9 L655.4 473.1 L654.4 474.3 L653.4 475.5 L652.4 476.8 L651.3 477.9 L650.0 478.9 L648.6 479.8 L647.1 480.5 L645.4 481.0 L643.8 481.5 L642.3 481.9 L640.8 482.3 L639.3 482.7 L637.8 483.1 L636.3 483.4 L634.8 483.8 L633.3 484.2 L631.8 484.4 L630.3 484.5 L628.8 484.5 L627.3 484.5 L625.8 484.5 L624.3 484.6 L622.8 484.8 L621.3 485.2 L619.8 485.8 L618.5 486.6 L617.2 487.5 L615.8 488.5 L614.5 489.4 L613.2 490.3 L611.9 491.3 L610.6 492.2 L609.3 493.2 L608.0 494.1 L606.6 495.0 L605.2 495.9 L603.8 496.6 L602.3 497.3 L600.8 497.8 L599.3 498.2 L597.8 498.4 L596.3 498.5 L594.8 498.5 L593.3 498.7 L591.8 499.1 L590.3 499.3 L588.8 499.5 L587.3 499.5 L585.8 499.7 L584.3 499.9 L582.8 500.3 L581.3 500.7 L579.8 501.1 L578.3 501.3 L576.8 501.5 L575.3 501.5 L573.8 501.5 L572.3 501.5 L570.8 501.5 L569.3 501.5 L567.8 501.5 L566.3 501.4 L564.8 501.2 L563.3 500.8 L561.8 500.6 L560.3 500.5 L558.8 500.5 L557.3 500.3 L555.8 499.9 L554.3 499.7 L552.8 499.5 L551.3 499.5 L549.8 499.2 L548.3 498.6 L546.8 497.9 L545.3 497.4 L543.8 496.9 L542.3 496.5 L540.8 495.9 L539.3 495.1 L537.8 494.5 L536.3 494.1 L534.8 493.6 L533.4 493.0 L532.0 492.1 L530.7 491.2 L529.4 490.2 L528.1 489.3 L526.9 488.3 L525.7 487.2 L524.5 486.1 L523.2 485.2 L521.8 484.4 L520.3 483.6 L518.9 482.7 L517.6 481.8 L516.2 480.9 L514.8 480.1 L513.3 479.4 L511.9 478.5 L510.5 477.6 L509.2 476.7 L507.9 475.7 L506.6 474.8 L505.3 473.8 L504.0 472.9 L502.7 472.0 L501.3 471.0 L500.0 470.1 L498.8 469.1 L497.6 468.1 L496.4 466.9 L495.3 465.8 L494.2 464.7 L493.0 463.6 L491.8 462.6 L490.5 461.6 L489.3 460.6 L488.1 459.6 L486.9 458.4 L485.7 457.4 L484.5 456.4 L483.2 455.5 L481.8 454.5 L480.5 453.6 L479.3 452.6 L478.1 451.6 L476.9 450.4 L475.7 449.4 L474.5 448.4 L473.2 447.4 L472.0 446.4 L470.8 445.3 L469.7 444.1 L468.7 442.9 L467.8 441.6 L466.8 440.3 L465.9 439.0 L464.9 437.7 L463.9 436.5 L462.8 435.3 L461.8 434.1 L460.9 432.7 L460.1 431.3 L459.3 429.8 L458.4 428.5 L457.4 427.2 L456.4 426.0 L455.3 424.8 L454.2 423.7 L453.1 422.6 L451.9 421.4 L450.8 420.3 L449.7 419.2 L448.5 418.1 L447.2 417.2 L445.8 416.4 L444.3 415.6 L442.8 414.9 L441.3 414.2 L439.8 413.8 L438.3 413.9 L436.8 414.4 L435.3 414.9 L433.8 415.6 L432.3 416.4 L430.9 417.3 L429.6 418.2 L428.5 419.4 L427.6 420.8 L427.0 422.3 L426.6 423.8 L426.5 425.3 L426.6 426.8 L426.8 428.3 L427.2 429.8 L427.6 431.3 L427.9 432.8 L428.4 434.2 L429.0 435.6 L429.9 437.0 L430.8 438.3 L431.6 439.8 L432.4 441.3 L433.1 442.8 L433.9 444.3 L434.6 445.7 L435.5 447.1 L436.4 448.5 L437.4 449.7 L438.4 450.9 L439.6 452.1 L440.8 453.1 L442.0 454.1 L443.3 455.1 L444.5 456.1 L445.7 457.2 L446.8 458.3 L447.9 459.4 L449.1 460.6 L450.2 461.7 L451.3 462.8 L452.5 463.9 L453.7 464.9 L455.0 465.9 L456.2 466.9 L457.4 467.9 L458.6 469.1 L459.7 470.2 L460.8 471.3 L461.9 472.4 L463.1 473.6 L464.2 474.7 L465.4 475.8 L466.6 476.8 L467.9 477.7 L469.2 478.7 L470.5 479.6 L471.8 480.5 L473.2 481.5 L474.5 482.4 L475.8 483.3 L477.3 484.1 L478.7 484.9 L480.2 485.7 L481.5 486.6 L482.8 487.6 L484.0 488.6 L485.2 489.7 L486.4 490.8 L487.6 491.8 L488.9 492.7 L490.2 493.7 L491.5 494.6 L492.8 495.5 L494.2 496.5 L495.5 497.4 L496.7 498.4 L497.9 499.4 L499.1 500.6 L500.2 501.7 L501.3 502.8 L502.5 503.9 L503.8 504.8 L505.3 505.6 L506.8 506.4 L508.3 507.1 L509.8 507.9 L511.3 508.6 L512.8 509.4 L514.2 510.1 L515.6 511.0 L517.0 511.9 L518.3 512.8 L519.6 513.8 L520.9 514.7 L522.1 515.7 L523.3 516.8 L524.5 517.9 L525.8 518.8 L527.3 519.6 L528.8 520.4 L530.3 521.1 L531.8 521.9 L533.3 522.5 L534.8 522.9 L536.3 523.3 L537.8 523.5 L539.3 523.5 L540.8 523.5 L542.3 523.5 L543.8 523.5 L545.3 523.7 L546.8 523.9 L548.3 524.3 L549.8 524.5 L551.3 524.5 L552.8 524.5 L554.3 524.5 L555.8 524.5 L557.3 524.8 L558.8 525.4 L560.3 526.1 L561.8 526.6 L563.3 527.1 L564.8 527.3 L566.3 527.5 L567.8 527.5 L569.3 527.7 L570.8 527.9 L572.3 528.3 L573.8 528.5 L575.3 528.5 L576.8 528.5 L578.3 528.5 L579.8 528.5 L581.3 528.5 L582.8 528.5 L584.3 528.5 L585.8 528.5 L587.3 528.5 L588.8 528.4 L590.3 528.2 L591.8 527.8 L593.3 527.3 L594.8 526.6 L596.3 525.9 L597.8 525.4 L599.3 524.9 L600.8 524.6 L602.3 524.2 L603.8 523.8 L605.3 523.4 L606.8 523.1 L608.3 522.7 L609.8 522.5 L611.3 522.5 L612.8 522.6 L614.3 522.8 L615.8 523.2 L617.3 523.7 L618.8 524.4 L620.2 525.1 L621.6 526.0 L623.0 526.9 L624.2 527.9 L625.3 529.1 L626.2 530.4 L627.1 531.8 L627.9 533.3 L628.6 534.8 L629.0 536.4 L629.3 538.0 L629.5 539.7 L629.8 541.2 L630.2 542.8 L630.4 544.3 L630.5 545.8 L630.5 547.3 L630.7 548.8 L631.1 550.3 L631.4 551.8 L631.8 553.3 L632.2 554.8 L632.7 556.3 L633.4 557.8 L634.1 559.3 L634.6 560.8 L635.1 562.3 L635.5 563.8 L636.1 565.3 L636.9 566.8 L637.5 568.3 L637.9 569.8 L638.4 571.2 L639.0 572.6 L639.9 574.0 L640.8 575.3 L641.6 576.8 L642.4 578.3 L643.1 579.8 L643.9 581.3 L644.6 582.7 L645.5 584.1 L646.4 585.5 L647.3 586.8 L648.1 588.3 L648.8 589.8 L649.3 591.3 L649.5 592.8 L649.3 594.7 L648.7 596.1 L647.8 597.4 L646.8 598.6 L645.7 599.8 L644.5 600.8 L643.2 601.6 L641.8 602.1 L640.3 602.3 L638.8 602.5 L637.3 602.5 L635.8 602.7 L634.3 602.9 L632.8 603.4 L631.3 603.9 L629.8 604.6 L628.3 605.4 L626.8 606.1 L625.3 606.9 L623.8 607.6 L622.3 608.4 L620.8 609.1 L619.3 609.6 L617.8 610.1 L616.3 610.5 L614.8 611.1 L613.3 611.9 L611.8 612.5 L610.3 612.9 L608.8 613.3 L607.3 613.7 L605.8 614.1 L604.3 614.3 L602.8 614.5 L601.3 614.5 L599.8 614.7 L598.3 614.9 L596.8 615.3 L595.3 615.7 L593.8 616.1 L592.3 616.4 L590.8 616.8 L589.3 617.2 L587.8 617.6 L586.3 617.9 L584.8 618.3 L583.3 618.5 L581.8 618.5 L580.3 618.5 L578.8 618.5 L577.3 618.5 L575.8 618.5 L574.3 618.5 L572.8 618.5 L571.3 618.5 L569.8 618.5 L568.3 618.5 L566.8 618.5 L565.3 618.5 L563.8 618.7 L562.3 618.9 L560.8 619.3 L559.3 619.5 L557.8 619.5 L556.3 619.5 L554.8 619.5 L553.3 619.5 L551.8 619.5 L550.3 619.5 L548.8 619.5 L547.3 619.3 L545.8 618.9 L544.3 618.7 L542.8 618.5 L541.3 618.5 L539.8 618.3 L538.3 618.1 L536.8 617.7 L535.3 617.5 L533.8 617.5 L532.3 617.5 L530.8 617.5 L529.3 617.5 L527.8 617.2 L526.3 616.6 L524.8 616.0 L523.3 615.6 L521.8 615.5 L520.3 615.5 L518.8 615.5 L517.3 615.5 L515.8 615.5 L514.3 615.5 L512.8 615.5 L511.3 615.5 L509.8 615.5 L508.3 615.4 L506.8 615.2 L505.3 614.8 L503.8 614.4 L502.3 614.1 L500.8 613.7 L499.3 613.5 L497.8 613.5 L496.3 613.5 L494.8 613.5 L493.3 613.5 L491.8 613.5 L490.3 613.5 L488.8 613.5 L487.3 613.5 L485.8 613.5 L484.3 613.4 L482.8 613.2 L481.3 612.8 L479.8 612.3 L478.3 611.6 L476.8 610.9 L475.3 610.4 L473.8 609.9 L472.3 609.6 L470.8 609.2 L469.3 608.8 L467.8 608.3 L466.3 607.6 L464.8 606.9 L463.3 606.1 L461.8 605.4 L460.3 604.6 L458.8 603.9 L457.3 603.1 L455.8 602.4 L454.3 601.6 L452.8 600.9 L451.3 600.1 L449.8 599.4 L448.3 598.6 L446.8 597.9 L445.3 597.1 L443.8 596.4 L442.3 595.6 L440.8 594.9 L439.3 594.4 L437.8 593.9 L436.3 593.6 L434.8 593.2 L433.3 592.8 L431.8 592.3 L430.3 591.6 L428.8 590.9 L427.3 590.4 L425.8 589.9 L424.3 589.4 L422.9 588.7 L421.6 587.8 L420.3 586.8 L419.0 585.9 L417.7 585.0 L416.3 584.0 L415.0 583.1 L413.7 582.2 L412.2 581.4 L410.8 580.6 L409.3 579.9 L407.8 579.1 L406.3 578.4 L404.9 577.5 L403.5 576.6 L402.3 575.6 L401.1 574.6 L399.9 573.4 L398.8 572.3 L397.7 571.2 L396.6 570.1 L395.4 568.9 L394.3 567.8 L393.2 566.6 L392.2 565.4 L391.3 564.1 L390.3 562.8 L389.4 561.5 L388.5 560.2 L387.5 558.8 L386.6 557.5 L385.6 556.3 L384.4 555.2 L383.1 554.3 L381.9 553.3 L380.7 552.2 L379.5 551.1 L378.3 550.1 L377.0 549.1 L375.7 548.2 L374.4 547.2 L373.1 546.3 L371.9 545.2 L370.9 544.0 L369.9 542.7 L368.9 541.5 L367.8 540.3 L366.7 539.2 L365.6 538.1 L364.4 536.9 L363.4 535.7 L362.4 534.5 L361.4 533.2 L360.4 532.0 L359.3 530.8 L358.2 529.6 L357.2 528.4 L356.3 527.1 L355.3 525.9 L354.2 524.7 L353.1 523.5 L352.1 522.3 L351.1 521.0 L350.1 519.8 L349.1 518.6 L347.9 517.4 L346.8 516.3 L345.7 515.2 L344.6 514.1 L343.4 512.9 L342.3 511.8 L341.2 510.6 L340.2 509.4 L339.3 508.1 L338.4 506.7 L337.6 505.3 L336.9 503.8 L336.1 502.3 L335.4 500.8 L334.6 499.3 L333.9 497.8 L333.1 496.3 L332.3 494.8 L331.4 493.5 L330.4 492.2 L329.4 491.0 L328.3 489.8 L327.2 488.6 L326.2 487.4 L325.3 486.1 L324.3 484.8 L323.4 483.5 L322.5 482.1 L321.8 480.6 L321.2 479.0 L320.5 477.3 L319.9 475.8 L319.1 474.3 L318.4 472.8 L317.6 471.3 L316.9 469.8 L316.4 468.3 L315.9 466.8 L315.5 465.3 L314.9 463.8 L314.1 462.3 L313.4 460.8 L312.6 459.3 L311.9 457.8 L311.4 456.3 L310.9 454.8 L310.6 453.3 L310.2 451.8 L309.8 450.3 L309.4 448.8 L309.1 447.3 L308.7 445.8 L308.5 444.3 L308.5 442.8 L308.4 441.3 L308.2 439.8 L307.8 438.3 L307.4 436.8 L307.1 435.3 L306.7 433.8 L306.5 432.3 L306.5 430.8 L306.5 429.3 L306.5 427.8 L306.5 426.3 L306.7 424.8 L306.9 423.3 L307.4 421.8 L307.9 420.3 L308.6 418.8 L309.4 417.3 L310.1 415.8 L310.9 414.3 L311.6 412.8 L312.4 411.3 L313.1 409.8 L314.0 408.4 L314.9 407.0 L315.8 405.7 L316.6 404.2 L317.4 402.7 L318.0 401.2 L318.7 399.5 L319.2 397.9 L319.7 396.3 L320.1 394.8 L320.5 393.3 L321.1 391.8 L321.9 390.3 L322.5 388.8 L322.9 387.3 L323.4 385.8 L323.9 384.3 L324.6 382.8 L325.4 381.3 L326.1 379.8 L326.9 378.3 L327.6 376.8 L328.4 375.3 L329.1 373.8 L329.6 372.3 L330.1 370.8 L330.4 369.3 L330.8 367.8 L331.2 366.3 L331.6 364.8 L331.9 363.3 L332.3 361.8 L332.7 360.3 L333.1 358.8 L333.3 357.3 L333.5 355.8 L333.5 354.3 L333.5 352.8 L333.5 351.3 L333.5 349.8 L333.5 348.3 L333.5 346.8 L333.5 345.3 L333.5 343.8 L333.5 342.3 L333.5 340.8 L333.5 339.3 L333.5 337.8 L333.3 336.3 L332.9 334.8 L332.7 333.3 L332.5 331.8 L332.5 330.3 L332.5 328.8 L332.5 327.3 L332.5 325.8 L332.5 324.3 L332.5 322.8 L332.5 321.3 L332.5 319.8 L332.5 318.3 L332.5 316.8 L332.5 315.3 L332.5 313.8 L332.5 312.3 L332.5 310.8 L332.6 309.3 L332.8 307.8 L333.2 306.3 L333.4 304.8 L333.5 303.3 L333.5 301.8 L333.5 300.3 L333.5 298.8 L333.5 297.3 L333.5 295.8 L333.5 294.3 L333.7 292.8 L333.9 291.3 L334.3 289.8 L334.7 288.3 L335.1 286.8 L335.4 285.3 L335.8 283.8 L336.2 282.3 L336.4 280.8 L336.5 279.3 L336.5 277.8 L336.5 276.3 L336.5 274.8 L336.5 273.3 L336.5 271.8 L336.5 270.3 L336.5 268.8 L336.5 267.3 L336.5 265.8 L336.5 264.3 L336.5 262.8 L336.5 261.3 L336.5 259.8 L336.5 258.3 L336.3 256.8 L336.1 255.3 L335.7 253.8 L335.5 252.3 L335.5 250.8 L335.4 249.3 L335.2 247.8 L334.8 246.3 L334.3 244.8 L333.6 243.3 L332.9 241.8 L332.4 240.3 L331.9 238.8 L331.5 237.3 L330.9 235.8 L330.1 234.3 L329.4 232.8 L328.6 231.3 L327.9 229.8 L327.0 228.4 L326.1 227.0 L325.1 225.8 L324.1 224.6 L322.9 223.4 L321.7 222.4 L320.5 221.4 L319.1 220.5 L317.6 219.8 L316.0 219.2 L314.3 218.6 L312.8 218.2 L311.3 217.9 L309.8 217.9 L308.3 218.4 L306.8 219.1 L305.4 220.0 L304.0 220.9 L302.8 221.9 L301.6 222.9 L300.5 224.1 L299.5 225.3 L298.6 226.8 L298.0 228.3 L297.6 229.8 L297.5 231.3 L297.6 232.8 L297.8 234.3 L298.2 235.8 L298.7 237.3 L299.4 238.8 L300.1 240.2 L301.0 241.6 L301.9 243.0 L302.8 244.4 L303.5 245.9 L304.0 247.6 L304.5 249.2 L304.9 250.8 L305.3 252.3 L305.5 253.8 L305.5 255.3 L305.5 256.8 L305.5 258.3 L305.5 259.8 L305.7 261.3 L305.9 262.8 L306.3 264.3 L306.5 265.8 L306.5 267.3 L306.4 268.8 L306.2 270.3 L305.8 271.8 L305.4 273.3 L305.1 274.8 L304.6 276.3 L304.1 277.8 L303.4 279.3 L302.6 280.8 L301.9 282.3 L301.2 283.8 L300.7 285.3 L300.5 286.8 L300.5 288.3 L300.5 289.8 L300.5 291.3 L300.5 292.8 L300.5 294.3 L300.5 295.8 L300.7 297.3 L300.9 298.8 L301.3 300.3 L301.5 301.8 L301.5 303.3 L301.5 304.8 L301.5 306.3 L301.5 307.8 L301.5 309.3 L301.5 310.8 L301.5 312.3 L301.3 313.8 L300.9 315.3 L300.6 316.8 L300.2 318.3 L299.8 319.8 L299.6 321.3 L299.5 322.8 L299.4 324.3 L299.0 325.8 L298.4 327.3 L297.7 328.8 L297.2 330.3 L296.8 331.8 L296.6 333.3 L296.5 334.8 L296.5 336.3 L296.3 337.8 L295.9 339.3 L295.5 340.8 L294.9 342.3 L294.1 343.8 L293.4 345.3 L292.6 346.8 L291.9 348.3 L291.1 349.8 L290.4 351.3 L289.7 352.8 L289.2 354.3 L288.8 355.8 L288.4 357.3 L288.1 358.8 L287.6 360.3 L287.1 361.8 L286.4 363.3 L285.7 364.8 L285.2 366.3 L284.8 367.8 L284.6 369.3 L284.5 370.8 L284.5 372.3 L284.5 373.8 L284.5 375.3 L284.4 376.8 L284.2 378.3 L283.8 379.8 L283.6 381.3 L283.5 382.8 L283.4 384.3 L283.0 385.8 L282.4 387.3 L281.6 388.8 L280.9 390.3 L280.1 391.8 L279.5 393.3 L279.1 394.8 L278.6 396.3 L278.1 397.8 L277.4 399.3 L276.6 400.8 L275.9 402.3 L275.1 403.8 L274.5 405.3 L274.1 406.8 L273.7 408.3 L273.3 409.8 L272.9 411.3 L272.5 412.8 L271.9 414.3 L271.1 415.8 L270.4 417.3 L269.6 418.8 L268.9 420.3 L268.1 421.8 L267.4 423.3 L266.6 424.8 L265.9 426.3 L265.1 427.8 L264.5 429.3 L264.1 430.8 L263.7 432.3 L263.5 433.8 L263.5 435.3 L263.5 436.8 L263.5 438.3 L263.5 439.8 L263.2 441.3 L262.6 442.8 L261.9 444.3 L261.4 445.8 L260.9 447.3 L260.5 448.8 L259.9 450.3 L259.1 451.8 L258.5 453.3 L258.1 454.8 L257.6 456.3 L257.1 457.8 L256.4 459.3 L255.6 460.8 L254.9 462.3 L254.1 463.8 L253.4 465.3 L252.6 466.8 L251.9 468.2 L251.0 469.6 L250.1 471.0 L249.1 472.2 L248.1 473.4 L246.9 474.6 L245.7 475.6 L244.5 476.6 L243.1 477.5 L241.6 478.2 L240.0 478.8 L238.3 479.4 L236.8 479.8 L235.3 480.2 L233.8 480.3 L232.3 480.1 L230.8 479.6 L229.3 479.1 L227.8 478.4 L226.3 477.6 L224.8 476.9 L223.3 476.1 L221.8 475.4 L220.3 474.6 L218.8 473.9 L217.4 473.0 L216.0 472.1 L214.7 471.2 L213.2 470.4 L211.8 469.6 L210.3 468.9 L208.8 468.1 L207.3 467.4 L205.9 466.5 L204.5 465.6 L203.3 464.6 L202.1 463.6 L200.9 462.4 L199.7 461.4 L198.5 460.4 L197.2 459.5 L195.8 458.5 L194.5 457.6 L193.2 456.7 L191.9 455.7 L190.6 454.8 L189.4 453.8 L188.2 452.7 L187.1 451.6 L185.9 450.4 L184.8 449.3 L183.7 448.2 L182.6 447.1 L181.4 445.9 L180.3 444.8 L179.2 443.7 L178.1 442.6 L176.9 441.4 L175.8 440.3 L174.7 439.1 L173.7 437.9 L172.8 436.6 L171.7 435.4 L170.5 434.4 L169.2 433.4 L168.0 432.4 L166.8 431.3 L165.7 430.1 L164.7 428.9 L163.8 427.6 L162.9 426.2 L162.1 424.8 L161.4 423.3 L160.6 421.8 L159.9 420.3 L159.1 418.8 L158.2 417.4 L157.3 416.1 L156.3 414.8 L155.4 413.5 L154.5 412.2 L153.5 410.8 L152.6 409.5 L151.7 408.2 L150.9 406.7 L150.1 405.3 L149.3 403.8 L148.4 402.5 L147.5 401.2 L146.5 399.8 L145.6 398.5 L144.7 397.2 L143.9 395.7 L143.1 394.3 L142.4 392.8 L141.6 391.3 L140.9 389.8 L140.1 388.3 L139.4 386.8 L138.8 385.3 L138.5 383.8 L138.5 382.3 L138.8 380.8 L139.4 379.3 L140.1 377.8 L141.0 376.4 L141.9 375.0 L142.9 373.8 L144.1 372.7 L145.4 371.8 L146.7 370.8 L148.0 369.9 L149.3 368.9 L150.4 367.8 L151.4 366.5 L152.3 365.2 L153.1 363.7 L153.8 362.3 L154.2 360.8 L154.1 359.3 L153.7 357.8 L153.3 356.3 L152.9 354.8 L152.4 353.3 L151.7 351.9 L150.8 350.6 L149.8 349.4 L148.7 348.2 L147.6 347.0 L146.6 345.8 L145.6 344.5 L144.7 343.2 L143.7 341.9 L142.8 340.6 L141.8 339.3 L140.9 338.0 L139.9 336.7 L138.9 335.5 L137.8 334.3 L136.7 333.1 L135.7 331.9 L134.8 330.6 L133.8 329.3 L132.9 328.0 L132.0 326.7 L131.0 325.3 L130.1 324.0 L129.2 322.7 L128.2 321.4 L127.3 320.1 L126.3 318.8 L125.4 317.5 L124.5 316.2 L123.5 314.8 L122.6 313.5 L121.7 312.2 L120.9 310.7 L120.1 309.3 L119.5 307.8 L119.1 306.3 L118.6 304.8 L118.1 303.3 L117.4 301.8 L116.7 300.3 L116.2 298.8 L115.8 297.3 L115.4 295.8 L115.1 294.3 L114.6 292.8 L114.1 291.3 L113.4 289.8 L112.6 288.3 L111.9 286.8 L111.1 285.3 L110.5 283.8 L110.1 282.3 L109.7 280.8 L109.3 279.3 L108.9 277.8 L108.6 276.3 L108.2 274.8 L107.8 273.3 L107.6 271.8 L107.5 270.3 L107.5 268.8 L107.7 267.3 L108.1 265.8 L108.5 264.3 L109.1 262.8 L109.9 261.3 L110.7 259.8 L111.6 258.5 L112.6 257.2 L113.6 256.0 L114.7 254.8 L115.8 253.7 L116.9 252.6 L118.1 251.4 L119.2 250.3 L120.3 249.2 L121.4 248.1 L122.6 246.9 L123.7 245.8 L124.8 244.7 L125.9 243.6 L127.1 242.5 L128.3 241.5 L129.8 240.6 L131.3 239.9 L132.8 239.1 L134.3 238.4 L135.8 237.7 L137.3 237.2 L138.8 236.8 L140.3 236.3 L141.8 235.6 L143.3 234.9 L144.8 234.1 L146.3 233.4 L147.8 232.6 L149.3 231.9 L150.7 231.1 L152.2 230.3 L153.5 229.4 L154.8 228.4 L156.0 227.4 L157.2 226.3 L158.4 225.2 L159.6 224.2 L160.9 223.3 L162.2 222.3 L163.5 221.4 L164.9 220.5 L166.3 219.6 L167.8 218.9 L169.2 218.1 L170.6 217.2 L171.9 216.3 L173.3 215.4 L174.8 214.6 L176.3 213.9 L177.8 213.1 L179.3 212.4 L180.7 211.6 L182.1 210.7 L183.4 209.8 L184.7 208.8 L186.0 207.9 L187.3 207.0 L188.7 206.0 L190.0 205.1 L191.3 204.2 L192.6 203.2 L193.9 202.3 L195.2 201.3 L196.5 200.4 L197.8 199.5 L199.2 198.5 L200.5 197.6 L201.8 196.7 L203.1 195.7 L204.4 194.8 L205.7 193.8 L207.0 192.9 L208.3 192.0 L209.7 191.0 L211.0 190.1 L212.3 189.2 L213.6 188.2 L214.9 187.3 L216.1 186.3 L217.3 185.2 L218.5 184.1 L219.8 183.2 L221.3 182.4 L222.7 181.6 L224.1 180.7 L225.4 179.8 L226.7 178.8 L228.0 177.9 L229.4 177.0 L230.8 176.1 L232.3 175.4 L233.8 174.6 L235.3 173.9 L236.8 173.1 L238.3 172.4 L239.8 171.6 L241.3 170.9 L242.8 170.1 L244.3 169.4 L245.7 168.5 L246.9 167.5 L248.1 166.5 L249.3 165.5 L250.8 164.6 L252.2 163.9 L253.6 163.0 L255.0 162.1 L256.3 161.2 L257.8 160.4 L259.3 159.6 L260.8 159.0 L262.5 158.3 L264.1 157.8 L265.7 157.3 L267.3 156.9 L268.8 156.5 L270.3 155.9 L271.8 155.1 L273.3 154.5 L274.8 154.1 L276.3 153.7 L277.8 153.3 L279.3 152.9 L280.8 152.6 L282.3 152.2 L283.8 151.8 L285.3 151.6 L286.8 151.5 L288.3 151.5 L289.8 151.5 L291.3 151.5 L292.8 151.6 L294.3 151.8 L295.8 152.2 L297.3 152.6 L298.8 152.9 L300.3 153.3 L301.8 153.7 L303.3 154.1 L304.8 154.5 L306.3 155.1 L307.7 155.9 L309.2 156.7 L310.5 157.6 L311.8 158.5 L313.2 159.5 L314.5 160.4 L315.8 161.2 L317.3 161.8 L318.8 162.2 L320.3 162.7 L321.8 163.4 L323.3 164.1 L324.8 164.6 L326.3 165.1 L327.8 165.5 L329.3 166.1 L330.8 166.8 L332.3 167.3 L333.8 167.5 L335.3 167.5 L336.8 167.3 L338.3 166.9 L339.7 166.4 L341.1 165.7 L342.4 164.8 L343.8 163.9 L345.3 163.1 L346.8 162.4 L348.4 161.7 L350.0 161.2 L351.7 160.6 L353.2 160.2 L354.7 159.8 L356.2 159.2 L357.5 158.4 L358.8 157.5 L360.2 156.5 L361.5 155.6 L362.7 154.6 L363.9 153.6 L365.1 152.4 L366.1 151.2 L367.1 150.0 L368.0 148.7 L369.0 147.3 L369.9 146.0 L370.9 144.8 L371.9 143.6 L373.1 142.4 L374.2 141.3 L375.3 140.2 L376.5 139.1 L377.7 138.1 L379.0 137.1 L380.2 136.1 L381.4 135.1 L382.6 133.9 L383.7 132.8 L384.8 131.7 L385.9 130.5 L386.9 129.3 L387.9 128.0 L388.8 126.7 L389.8 125.4 L390.7 124.1 L391.6 122.7 L392.4 121.3 L393.2 119.8 L394.1 118.5 L395.2 117.3 L396.3 116.2 L397.4 115.1 L398.6 113.9 L399.7 112.8 L400.8 111.7 L401.9 110.5 L402.9 109.3 L403.9 108.0 L404.9 106.8 L405.9 105.6 L407.1 104.4 L408.3 103.4 L409.5 102.4 L410.8 101.5 L412.2 100.5 L413.5 99.6 L414.8 98.7 L416.3 97.9 L417.8 97.1 L419.3 96.5 L420.8 96.1 L422.3 95.6 L423.8 95.1 L425.3 94.4 L426.8 93.8 L428.3 93.5 L429.8 93.5 L431.3 93.3 L432.8 93.1 L434.3 92.7 L435.8 92.3 L437.3 91.9 L438.8 91.6 L440.3 91.2 L441.8 90.8 L443.3 90.6 L444.8 90.5 L446.3 90.4 L447.8 90.0 L449.3 89.4 L450.8 88.8 L452.3 88.5 L453.8 88.5 L455.3 88.3 L456.8 88.1 L458.3 87.7 L459.8 87.5 L461.3 87.5 L462.8 87.5 L464.3 87.5 L465.8 87.5 L467.3 87.5 L468.8 87.5 L470.3 87.6 L471.8 88.0 L473.3 88.6 L474.8 89.3 L476.3 89.8 L477.8 90.2 L479.3 90.7 L480.8 91.4 L482.3 92.1 L483.8 92.9 L485.3 93.6 L486.8 94.3 L488.3 94.8 L489.8 95.2 L491.3 95.7 L492.8 96.4 L494.3 97.1 L495.8 97.9 L497.3 98.6 L498.8 99.2 L500.3 99.5 L501.8 99.5 L503.3 99.8 L504.8 100.4 L506.3 101.1 L507.8 101.9 L509.3 102.6 L510.8 103.4 L512.3 104.1 L513.8 104.9 L515.3 105.6 L516.8 106.4 L518.3 107.1 L519.8 107.9 L521.3 108.6 L522.8 109.4 L524.3 110.1 L525.8 110.9 L527.3 111.5 L528.8 111.9 L530.3 112.3 L531.8 112.7 L533.3 113.1 L534.8 113.3 L536.3 113.5 L537.8 113.5 L539.3 113.5 L540.8 113.5 L542.3 113.5 L543.8 113.3 L545.3 112.9 L546.8 112.7 L548.3 112.5 L549.8 112.5 L551.3 112.3 L552.8 112.1 L554.3 111.7 L555.8 111.3 L557.3 110.9 L558.8 110.7 L560.3 110.5 L561.8 110.5 L563.3 110.2 L564.8 109.6 L566.3 108.9 L567.8 108.4 L569.3 107.9 L570.8 107.6 L572.3 107.2 L573.8 106.8 L575.3 106.3 L576.8 105.6 L578.3 104.9 L579.8 104.1 L581.3 103.4 L582.8 102.7 L584.3 102.2 L585.8 101.8 L587.3 101.4 L588.8 101.1 L590.3 100.7 L591.8 100.5 L593.3 100.5 L594.8 100.5 L596.3 100.5 L597.8 100.5 L599.3 100.2 L600.8 99.6 L602.3 98.9 L603.8 98.1 L605.3 97.4 L606.7 96.6 L608.1 95.7 L609.4 94.8 L610.7 93.8 L612.0 92.9 L613.3 92.0 L614.7 91.0 L616.0 90.1 L617.3 89.2 L618.8 88.4 L620.2 87.6 L621.7 86.8 L623.0 85.9 L624.4 85.0 L625.8 84.1 L627.3 83.4 L628.8 82.6 L630.3 81.9 L631.8 81.1 L633.3 80.4 L634.8 79.6 L636.3 78.9 L637.9 78.2 L639.5 77.7 L641.2 77.2 L642.9 76.9 Z M484.3 192.4 L482.8 193.0 L481.3 193.4 L479.8 193.5 L478.3 193.6 L476.8 193.8 L475.3 194.2 L473.8 194.4 L472.3 194.5 L470.8 194.5 L469.3 194.5 L467.8 194.5 L466.3 194.6 L464.8 194.8 L463.3 195.2 L461.8 195.4 L460.3 195.5 L458.8 195.6 L457.3 196.0 L455.8 196.6 L454.3 197.4 L452.8 198.1 L451.3 198.9 L449.9 199.8 L448.7 200.8 L447.5 201.9 L446.2 202.8 L444.8 203.6 L443.3 204.4 L441.9 205.3 L440.6 206.2 L439.3 207.2 L438.0 208.1 L436.7 209.1 L435.6 210.2 L434.6 211.5 L433.7 212.8 L432.7 214.1 L431.8 215.4 L430.9 216.8 L430.1 218.3 L429.4 219.8 L428.6 221.3 L427.9 222.8 L427.1 224.3 L426.4 225.8 L425.6 227.3 L425.0 228.8 L424.3 230.5 L423.8 232.1 L423.1 233.7 L422.4 235.3 L421.7 236.8 L421.2 238.3 L420.8 239.8 L420.6 241.3 L420.5 242.8 L420.5 244.3 L420.5 245.8 L420.5 247.3 L420.5 248.8 L420.5 250.3 L420.5 251.8 L420.5 253.3 L420.5 254.8 L420.6 256.3 L421.0 257.8 L421.6 259.3 L422.4 260.8 L423.1 262.3 L423.9 263.7 L424.8 265.1 L425.8 266.3 L427.0 267.4 L428.2 268.4 L429.5 269.4 L430.8 270.3 L432.3 271.1 L433.8 271.9 L435.3 272.5 L436.8 272.9 L438.3 273.4 L439.8 273.9 L441.3 274.6 L442.7 275.4 L444.1 276.3 L445.4 277.2 L446.7 278.2 L448.0 279.1 L449.4 280.0 L450.8 280.6 L452.3 281.1 L453.8 281.4 L455.3 281.8 L456.8 282.2 L458.3 282.6 L459.8 282.9 L461.3 283.3 L462.8 283.7 L464.3 284.1 L465.8 284.4 L467.3 284.8 L468.8 285.2 L470.3 285.6 L471.8 285.9 L473.3 286.3 L474.8 286.7 L476.3 287.1 L477.8 287.3 L479.3 287.5 L480.8 287.5 L482.3 287.5 L483.8 287.5 L485.3 287.5 L486.8 287.5 L488.3 287.5 L489.8 287.3 L491.3 286.8 L492.8 286.1 L494.3 285.4 L495.8 284.6 L497.3 283.9 L498.8 283.1 L500.3 282.4 L501.7 281.6 L503.1 280.7 L504.4 279.8 L505.7 278.8 L507.0 277.9 L508.3 277.0 L509.7 276.0 L511.0 275.1 L512.3 274.2 L513.6 273.2 L514.9 272.3 L516.1 271.2 L517.1 270.0 L518.0 268.6 L518.9 267.2 L519.6 265.8 L520.3 264.3 L520.8 262.8 L521.2 261.3 L521.6 259.8 L521.9 258.3 L522.4 256.8 L522.9 255.3 L523.6 253.8 L524.3 252.3 L524.8 250.8 L525.2 249.3 L525.4 247.8 L525.5 246.3 L525.5 244.8 L525.5 243.3 L525.5 241.8 L525.5 240.3 L525.5 238.8 L525.5 237.3 L525.5 235.8 L525.5 234.3 L525.5 232.8 L525.5 231.3 L525.5 229.8 L525.4 228.3 L525.2 226.8 L524.8 225.3 L524.6 223.8 L524.5 222.3 L524.5 220.8 L524.3 219.3 L523.9 217.8 L523.5 216.3 L522.9 214.8 L522.1 213.3 L521.3 211.8 L520.4 210.5 L519.4 209.2 L518.4 208.0 L517.3 206.8 L516.2 205.6 L515.2 204.4 L514.3 203.1 L513.3 201.9 L512.2 200.7 L511.0 199.6 L509.8 198.6 L508.5 197.6 L507.2 196.7 L505.7 195.9 L504.3 195.1 L502.8 194.4 L501.3 193.6 L499.8 192.9 L498.3 192.4 L496.8 191.9 L495.3 191.7 L493.8 191.5 L492.2 191.5 L490.6 191.5 L488.8 191.5 L487.0 191.6 L485.3 192.0 Z M650.5 296.8 L652.1 296.7 L653.7 297.0 L655.3 297.6 L656.7 298.4 L658.1 299.3 L659.4 300.2 L660.6 301.8 L661.1 303.3 L661.2 304.8 L660.8 306.3 L660.1 307.7 L659.2 309.1 L658.2 310.3 L657.0 311.4 L655.8 312.4 L654.5 313.4 L653.2 314.3 L651.9 315.3 L650.6 316.2 L649.4 317.3 L648.4 318.5 L647.5 319.8 L646.5 321.2 L645.6 322.5 L644.7 323.8 L643.9 325.3 L643.1 326.7 L642.2 328.1 L641.2 329.3 L640.0 330.4 L638.8 331.4 L637.5 332.4 L636.2 333.1 L634.3 333.5 L632.8 333.4 L631.3 333.0 L629.8 332.4 L628.3 331.6 L626.9 330.7 L625.6 329.8 L624.4 328.8 L623.2 327.7 L622.1 326.5 L621.2 325.2 L620.4 323.8 L619.6 322.3 L618.7 320.9 L617.8 319.6 L617.2 318.1 L616.8 316.5 L616.7 314.9 L616.8 313.3 L617.1 311.8 L617.6 310.3 L618.3 308.9 L619.2 307.6 L620.4 306.5 L621.8 305.6 L623.3 304.9 L624.8 304.1 L626.3 303.4 L627.8 302.7 L629.3 302.2 L630.8 301.8 L632.3 301.4 L633.8 301.1 L635.3 300.7 L636.8 300.3 L638.3 299.9 L639.8 299.6 L641.3 299.2 L642.8 298.8 L644.3 298.4 L646.0 297.8 L647.7 297.3 L649.3 297.0 Z M765.5 308.2 L767.1 308.5 L768.7 308.9 L770.3 309.6 L771.8 310.4 L773.3 311.1 L774.7 311.9 L776.1 312.8 L777.3 313.8 L778.4 315.0 L779.4 316.2 L780.4 317.5 L781.3 318.8 L782.3 320.1 L783.2 321.4 L784.2 322.7 L785.1 324.0 L786.0 325.4 L786.6 326.8 L787.1 328.3 L787.6 329.7 L788.3 331.1 L789.2 332.4 L790.1 333.8 L790.9 335.3 L791.6 336.8 L792.3 338.4 L792.8 340.0 L793.5 341.7 L794.1 343.2 L794.9 344.7 L795.7 346.2 L796.6 347.5 L797.5 348.8 L798.5 350.2 L799.4 351.5 L800.2 352.8 L800.8 354.3 L801.2 355.8 L801.7 357.3 L802.4 358.8 L803.1 360.3 L803.6 361.8 L804.1 363.3 L804.4 364.8 L804.8 366.3 L805.2 367.8 L805.7 369.3 L806.4 370.8 L807.1 372.3 L807.9 373.8 L808.6 375.3 L809.3 376.8 L809.8 378.3 L810.2 379.8 L810.4 381.3 L810.5 382.8 L810.6 384.3 L811.0 385.8 L811.6 387.3 L812.3 388.8 L812.8 390.3 L813.2 391.8 L813.6 393.3 L813.9 394.8 L814.3 396.3 L814.5 397.8 L814.5 399.3 L814.5 400.8 L814.5 402.3 L814.5 403.8 L814.3 405.3 L814.1 406.8 L813.7 408.3 L813.3 409.8 L812.9 411.3 L812.6 412.8 L812.2 414.3 L811.8 415.8 L811.4 417.3 L811.1 418.8 L810.7 420.3 L810.3 421.8 L809.9 423.3 L809.4 424.7 L808.7 426.1 L807.8 427.4 L806.8 428.7 L805.9 430.0 L805.0 431.3 L804.0 432.7 L803.1 434.0 L802.3 435.4 L801.5 436.9 L801.0 438.6 L800.3 440.2 L799.6 441.8 L798.9 443.3 L798.1 444.8 L797.4 446.3 L796.6 447.7 L795.7 449.1 L794.8 450.4 L793.8 451.6 L792.7 452.8 L791.5 453.9 L790.3 454.9 L789.0 455.9 L787.7 456.8 L786.4 457.8 L785.1 458.7 L783.7 459.6 L782.3 460.4 L780.8 461.1 L779.4 462.0 L778.0 462.9 L776.7 463.8 L775.4 464.8 L774.1 465.7 L772.7 466.6 L771.3 467.4 L769.8 468.1 L768.3 468.6 L766.8 469.1 L765.3 469.3 L763.8 469.5 L762.3 469.5 L760.8 469.3 L759.3 469.1 L757.8 468.7 L756.3 468.3 L754.8 467.9 L753.3 467.6 L751.8 467.2 L750.3 466.8 L748.8 466.4 L747.3 466.1 L745.8 465.7 L744.3 465.3 L742.8 464.9 L741.3 464.5 L739.8 463.9 L738.3 463.1 L736.8 462.3 L735.5 461.4 L734.2 460.5 L732.8 459.5 L731.5 458.6 L730.3 457.6 L729.1 456.6 L727.9 455.4 L726.8 454.3 L725.7 453.2 L724.6 452.1 L723.4 450.9 L722.3 449.8 L721.2 448.6 L720.2 447.4 L719.3 446.1 L718.3 444.8 L717.4 443.5 L716.5 442.2 L715.5 440.8 L714.6 439.5 L713.7 438.2 L712.9 436.7 L712.1 435.3 L711.4 433.8 L710.6 432.3 L709.9 430.8 L709.4 429.3 L708.9 427.8 L708.7 426.3 L708.5 424.8 L708.5 423.3 L708.5 421.8 L708.5 420.3 L708.5 418.8 L708.5 417.3 L708.5 415.8 L708.6 414.3 L708.8 412.8 L709.2 411.3 L709.6 409.8 L709.9 408.3 L710.4 406.8 L710.9 405.3 L711.6 403.8 L712.4 402.3 L713.3 400.9 L714.2 399.6 L715.0 398.1 L715.7 396.5 L716.2 394.9 L716.9 393.3 L717.6 391.8 L718.3 390.3 L718.8 388.8 L719.2 387.3 L719.4 385.8 L719.5 384.3 L719.5 382.8 L719.7 381.3 L720.1 379.8 L720.6 378.3 L721.3 376.9 L722.2 375.6 L723.2 374.3 L724.1 373.0 L725.0 371.7 L726.0 370.3 L726.9 369.0 L727.8 367.7 L728.6 366.2 L729.4 364.7 L730.0 363.2 L730.7 361.5 L731.2 359.9 L731.9 358.3 L732.6 356.8 L733.4 355.3 L734.3 353.9 L735.2 352.6 L736.2 351.3 L737.1 350.0 L738.0 348.7 L739.0 347.3 L739.9 346.0 L740.8 344.7 L741.8 343.4 L742.7 342.1 L743.7 340.8 L744.6 339.5 L745.5 338.1 L746.4 336.7 L747.1 335.3 L747.8 333.7 L748.5 332.1 L749.0 330.4 L749.5 328.8 L749.9 327.3 L750.3 325.8 L750.7 324.3 L751.1 322.8 L751.5 321.3 L752.1 319.8 L752.9 318.3 L753.7 316.8 L754.6 315.5 L755.6 314.2 L756.6 313.0 L757.7 311.8 L759.0 310.7 L760.4 309.7 L762.1 308.8 L763.8 308.3 Z M286.5 482.8 L288.1 482.7 L289.7 482.8 L291.3 483.1 L292.7 483.6 L294.1 484.3 L295.4 485.2 L296.6 486.3 L297.6 487.5 L298.5 488.8 L299.5 490.2 L300.4 491.5 L301.3 492.8 L302.1 494.3 L302.9 495.8 L303.6 497.3 L304.4 498.8 L305.1 500.2 L306.0 501.6 L306.9 503.0 L307.8 504.3 L308.8 505.6 L309.7 506.9 L310.6 508.3 L311.4 509.8 L312.1 511.2 L313.0 512.6 L313.9 514.0 L314.8 515.3 L315.8 516.6 L316.7 517.9 L317.4 519.3 L317.9 520.8 L318.4 522.3 L318.9 523.8 L319.6 525.3 L320.4 526.8 L321.1 528.3 L321.9 529.7 L322.7 531.2 L323.6 532.5 L324.5 533.8 L325.5 535.2 L326.4 536.5 L327.3 537.8 L328.3 539.1 L329.2 540.4 L330.2 541.7 L331.1 543.0 L332.1 544.3 L333.2 545.4 L334.5 546.4 L335.7 547.4 L336.9 548.4 L338.1 549.6 L339.1 550.8 L340.1 552.0 L341.0 553.3 L342.0 554.7 L342.9 556.0 L343.8 557.3 L344.8 558.6 L345.7 559.9 L346.8 561.1 L348.0 562.1 L349.3 563.0 L350.7 564.0 L352.0 564.9 L353.2 565.9 L354.4 566.9 L355.6 568.1 L356.7 569.2 L357.8 570.3 L358.9 571.4 L360.1 572.6 L361.2 573.7 L362.3 574.8 L363.4 575.9 L364.6 577.1 L365.7 578.2 L366.8 579.3 L367.9 580.4 L369.1 581.6 L370.2 582.7 L371.4 583.8 L372.6 584.8 L373.9 585.7 L375.3 586.6 L376.8 587.4 L378.2 588.2 L379.5 589.1 L380.7 590.2 L381.8 591.3 L382.9 592.4 L384.1 593.6 L385.2 594.7 L386.3 595.8 L387.5 596.9 L388.8 597.8 L390.3 598.6 L391.7 599.4 L393.1 600.3 L394.4 601.2 L395.7 602.2 L397.0 603.1 L398.3 604.0 L399.7 605.0 L401.0 605.9 L402.3 606.8 L403.6 607.8 L404.9 608.7 L406.2 609.7 L407.5 610.6 L408.8 611.5 L410.2 612.5 L411.5 613.4 L412.8 614.2 L414.3 614.8 L415.8 615.2 L417.3 615.7 L418.8 616.4 L420.3 617.1 L421.8 617.6 L423.3 618.1 L424.8 618.4 L426.3 618.8 L427.8 619.2 L429.3 619.6 L430.8 619.9 L432.3 620.4 L433.8 620.9 L435.3 621.6 L436.8 622.3 L438.3 622.8 L439.8 623.2 L441.3 623.6 L442.8 623.9 L444.2 624.4 L445.6 625.0 L447.0 625.9 L448.3 626.8 L449.6 627.8 L450.9 628.7 L452.3 629.6 L453.8 630.4 L455.3 631.1 L456.8 631.6 L458.3 632.1 L459.8 632.5 L461.3 633.1 L462.8 633.9 L464.3 634.6 L465.8 635.4 L467.3 636.1 L468.8 636.9 L470.3 637.6 L471.8 638.3 L473.3 638.8 L474.8 639.2 L476.3 639.4 L477.8 639.5 L479.3 639.5 L480.8 639.5 L482.3 639.5 L483.8 639.5 L485.3 639.5 L486.8 639.5 L488.3 639.5 L489.8 639.5 L491.3 639.5 L492.8 639.5 L494.3 639.5 L495.8 639.5 L497.3 639.5 L498.8 639.5 L500.3 639.8 L501.8 640.4 L503.3 641.0 L504.8 641.4 L506.3 641.5 L507.8 641.6 L509.3 641.8 L510.8 642.2 L512.3 642.4 L513.8 642.5 L515.3 642.5 L516.8 642.5 L518.3 642.5 L519.8 642.5 L521.3 642.5 L522.8 642.5 L524.3 642.7 L525.8 642.9 L527.3 643.4 L528.8 643.9 L530.3 644.6 L531.7 645.5 L532.9 646.5 L534.0 647.6 L534.6 649.3 L534.3 651.2 L533.6 652.6 L532.7 653.8 L531.5 654.8 L530.2 655.6 L528.8 656.1 L527.3 656.3 L525.8 656.5 L524.3 656.5 L522.8 656.8 L521.3 657.4 L519.8 658.1 L518.3 658.6 L516.8 659.1 L515.3 659.5 L513.8 660.1 L512.3 660.9 L510.8 661.5 L509.3 661.9 L507.8 662.3 L506.3 662.5 L504.8 662.5 L503.3 662.5 L501.8 662.5 L500.3 662.5 L498.8 662.5 L497.3 662.5 L495.8 662.5 L494.3 662.3 L492.8 661.9 L491.3 661.6 L489.8 661.2 L488.3 660.8 L486.8 660.4 L485.3 660.1 L483.8 659.7 L482.3 659.5 L480.8 659.5 L479.3 659.6 L477.8 659.8 L476.3 660.2 L474.8 660.7 L473.3 661.4 L471.8 662.0 L470.3 662.4 L468.8 662.5 L467.3 662.5 L465.8 662.5 L464.3 662.5 L462.8 662.3 L461.3 662.1 L459.8 661.6 L458.3 661.1 L456.8 660.4 L455.3 659.6 L453.8 658.9 L452.3 658.2 L450.8 657.7 L449.3 657.5 L447.8 657.5 L446.3 657.5 L444.8 657.5 L443.3 657.5 L441.8 657.5 L440.3 657.5 L438.8 657.5 L437.3 657.5 L435.8 657.5 L434.3 657.5 L432.8 657.5 L431.3 657.5 L429.8 657.5 L428.3 657.5 L426.8 657.5 L425.3 657.5 L423.8 657.5 L422.3 657.5 L420.8 657.5 L419.3 657.4 L417.8 657.2 L416.3 656.8 L414.8 656.4 L413.3 656.1 L411.8 655.7 L410.3 655.3 L408.8 654.9 L407.3 654.5 L405.8 653.9 L404.3 653.1 L402.8 652.4 L401.3 651.6 L399.8 650.9 L398.3 650.1 L396.8 649.4 L395.3 648.6 L393.8 647.9 L392.3 647.1 L390.8 646.4 L389.3 645.6 L387.8 644.9 L386.4 644.0 L385.0 643.1 L383.7 642.2 L382.4 641.2 L381.1 640.3 L379.7 639.4 L378.3 638.6 L376.8 637.9 L375.4 637.0 L374.0 636.1 L372.7 635.2 L371.4 634.2 L370.1 633.3 L368.7 632.4 L367.3 631.6 L365.8 630.9 L364.4 630.0 L363.0 629.1 L361.7 628.2 L360.4 627.2 L359.1 626.3 L357.7 625.4 L356.3 624.6 L354.8 623.9 L353.4 623.0 L352.0 622.1 L350.7 621.2 L349.4 620.2 L348.1 619.3 L346.7 618.4 L345.3 617.6 L343.8 616.9 L342.4 616.0 L341.0 615.1 L339.7 614.2 L338.4 613.2 L337.1 612.3 L335.9 611.3 L334.7 610.2 L333.6 609.0 L332.6 607.8 L331.6 606.5 L330.6 605.3 L329.6 604.1 L328.4 602.9 L327.4 601.7 L326.4 600.5 L325.5 599.2 L324.5 597.8 L323.6 596.5 L322.6 595.3 L321.6 594.1 L320.4 592.9 L319.4 591.7 L318.4 590.5 L317.4 589.2 L316.4 588.0 L315.3 586.8 L314.2 585.7 L313.1 584.6 L311.9 583.4 L310.8 582.3 L309.7 581.2 L308.5 580.1 L307.3 579.1 L306.0 578.1 L304.8 577.1 L303.6 576.1 L302.4 574.9 L301.3 573.8 L300.2 572.7 L299.1 571.5 L298.1 570.3 L297.1 569.0 L296.1 567.8 L295.1 566.6 L293.9 565.4 L292.9 564.2 L291.9 563.0 L291.0 561.7 L290.0 560.3 L289.1 559.0 L288.2 557.7 L287.2 556.4 L286.3 555.1 L285.3 553.9 L284.2 552.7 L283.1 551.5 L282.2 550.2 L281.4 548.8 L280.5 547.3 L279.5 546.1 L278.4 544.9 L277.4 543.7 L276.4 542.5 L275.5 541.1 L274.6 539.7 L273.9 538.3 L273.1 536.8 L272.2 535.4 L271.3 534.1 L270.4 532.7 L269.6 531.3 L268.9 529.8 L268.4 528.3 L267.9 526.8 L267.6 525.3 L267.2 523.8 L266.8 522.3 L266.4 520.8 L266.1 519.3 L265.7 517.8 L265.3 516.3 L264.9 514.8 L264.7 513.3 L264.5 511.8 L264.5 510.3 L264.7 508.8 L264.9 507.3 L265.3 505.8 L265.7 504.3 L266.1 502.8 L266.6 501.3 L267.3 499.9 L268.2 498.6 L269.2 497.3 L270.1 496.0 L271.0 494.7 L272.0 493.3 L272.9 492.0 L273.9 490.8 L274.9 489.6 L276.1 488.4 L277.3 487.4 L278.5 486.4 L279.9 485.5 L281.3 484.6 L282.8 483.9 L284.3 483.3 L285.9 482.9 Z M684.3 491.0 L685.8 491.1 L687.3 491.5 L688.8 492.1 L690.2 492.9 L691.6 493.8 L692.9 494.7 L694.1 495.8 L695.1 497.0 L696.0 498.4 L696.9 499.8 L697.6 501.3 L698.4 502.8 L699.1 504.3 L699.9 505.8 L700.6 507.3 L701.4 508.8 L702.1 510.3 L702.9 511.8 L703.6 513.3 L704.3 514.8 L704.8 516.3 L705.2 517.8 L705.6 519.3 L705.9 520.8 L706.3 522.3 L706.5 523.8 L706.5 525.3 L706.6 526.8 L706.8 528.3 L707.2 529.8 L707.6 531.3 L707.9 532.8 L708.3 534.3 L708.7 535.8 L709.1 537.3 L709.4 538.8 L709.8 540.3 L710.2 541.8 L710.7 543.3 L711.4 544.8 L712.1 546.3 L712.9 547.8 L713.6 549.3 L714.5 550.7 L715.5 551.9 L716.6 553.1 L717.7 554.2 L718.8 555.3 L720.0 556.4 L721.3 557.3 L722.8 558.1 L724.3 558.8 L725.9 559.5 L727.6 560.0 L729.2 560.2 L730.8 560.1 L732.2 559.6 L733.5 558.8 L734.7 557.8 L735.8 556.6 L736.8 555.4 L737.7 554.1 L738.6 552.7 L739.4 551.3 L740.0 549.8 L740.2 548.3 L739.9 546.8 L739.6 545.3 L739.2 543.8 L738.8 542.3 L738.6 540.8 L738.5 539.3 L738.5 537.8 L738.3 536.3 L737.9 534.8 L737.7 533.3 L737.5 531.8 L737.5 530.3 L737.3 528.8 L737.1 527.3 L736.7 525.8 L736.5 524.3 L736.5 522.8 L736.4 521.3 L736.2 519.8 L735.8 518.3 L735.4 516.8 L735.1 515.3 L734.8 513.8 L734.8 512.3 L735.1 510.8 L735.5 509.3 L736.1 507.8 L736.9 506.3 L737.8 504.9 L738.8 503.7 L740.0 502.6 L741.4 501.8 L743.0 501.2 L744.7 500.7 L746.2 500.5 L747.8 500.5 L749.3 500.5 L750.8 500.5 L752.3 500.5 L753.8 500.7 L755.3 501.1 L756.8 501.3 L758.3 501.5 L759.8 501.5 L761.3 501.5 L762.8 501.5 L764.3 501.5 L765.8 501.7 L767.3 502.1 L768.8 502.5 L770.3 503.1 L771.7 503.9 L773.0 504.9 L774.1 506.0 L775.0 507.4 L775.9 508.8 L776.6 510.3 L777.2 511.8 L777.5 513.3 L777.5 514.8 L777.5 516.3 L777.5 517.8 L777.5 519.3 L777.5 520.8 L777.5 522.3 L777.4 523.8 L777.2 525.3 L776.8 526.8 L776.4 528.3 L776.1 529.8 L775.7 531.3 L775.3 532.8 L774.9 534.3 L774.6 535.8 L774.2 537.3 L773.8 538.8 L773.4 540.3 L773.1 541.8 L772.7 543.3 L772.5 544.8 L772.5 546.3 L772.5 547.8 L772.5 549.3 L772.5 550.8 L772.3 552.3 L772.1 553.8 L771.7 555.3 L771.3 556.8 L770.9 558.3 L770.5 559.8 L769.9 561.3 L769.1 562.8 L768.4 564.3 L767.6 565.8 L766.8 567.2 L765.9 568.5 L764.8 569.7 L763.7 570.9 L762.7 572.1 L761.8 573.4 L760.8 574.6 L759.7 575.8 L758.6 577.0 L757.6 578.2 L756.6 579.5 L755.6 580.7 L754.6 581.9 L753.4 583.1 L752.2 584.1 L751.0 585.1 L749.6 586.0 L748.2 586.9 L746.8 587.6 L745.3 588.3 L743.8 588.8 L742.3 589.2 L740.8 589.7 L739.3 590.4 L737.8 591.1 L736.3 591.6 L734.8 592.1 L733.3 592.3 L731.8 592.5 L730.3 592.5 L728.8 592.7 L727.3 592.9 L725.8 593.3 L724.3 593.5 L722.8 593.5 L721.3 593.5 L719.8 593.5 L718.3 593.5 L716.8 593.5 L715.3 593.5 L713.8 593.5 L712.3 593.5 L710.8 593.5 L709.3 593.4 L707.8 593.2 L706.3 592.8 L704.8 592.3 L703.3 591.6 L701.8 590.9 L700.3 590.1 L698.8 589.4 L697.3 588.6 L695.8 587.9 L694.3 587.1 L692.8 586.4 L691.3 585.6 L689.8 584.9 L688.3 584.1 L686.8 583.4 L685.3 582.6 L683.8 581.9 L682.3 581.1 L680.8 580.4 L679.3 579.6 L677.8 578.8 L676.5 577.9 L675.3 576.8 L674.2 575.6 L673.2 574.4 L672.3 573.1 L671.3 571.8 L670.4 570.5 L669.5 569.2 L668.5 567.8 L667.6 566.5 L666.7 565.2 L665.9 563.7 L665.1 562.3 L664.4 560.8 L663.6 559.3 L662.9 557.8 L662.4 556.3 L661.9 554.8 L661.6 553.3 L661.2 551.8 L660.8 550.3 L660.3 548.8 L659.6 547.3 L658.9 545.8 L658.4 544.3 L657.9 542.8 L657.6 541.3 L657.2 539.8 L656.8 538.3 L656.4 536.8 L656.1 535.3 L655.7 533.8 L655.3 532.3 L654.9 530.8 L654.6 529.3 L654.2 527.8 L653.8 526.3 L653.6 524.8 L653.5 523.3 L653.5 521.8 L653.7 520.3 L654.1 518.8 L654.5 517.3 L655.1 515.8 L655.9 514.3 L656.7 512.8 L657.6 511.5 L658.6 510.2 L659.7 509.1 L661.0 508.1 L662.3 507.2 L663.6 506.2 L664.9 505.3 L666.2 504.3 L667.5 503.4 L668.8 502.4 L669.9 501.3 L670.9 500.0 L671.9 498.8 L672.9 497.6 L674.1 496.4 L675.3 495.4 L676.5 494.4 L677.9 493.5 L679.3 492.6 L680.8 491.9 L682.3 491.3 L683.8 491.0 Z M557.5 684.8 L559.1 684.7 L560.7 684.8 L562.3 685.1 L563.7 685.6 L565.1 686.3 L566.4 687.2 L567.7 688.2 L569.0 689.1 L570.3 690.1 L571.4 691.2 L572.4 692.5 L573.3 693.8 L574.1 695.3 L574.9 696.8 L575.6 698.3 L576.4 699.8 L577.1 701.3 L577.6 702.8 L578.1 704.3 L578.5 705.8 L579.1 707.3 L579.8 708.8 L580.3 710.3 L580.5 711.8 L580.5 713.3 L580.7 714.8 L581.1 716.3 L581.5 717.8 L582.1 719.3 L582.9 720.8 L583.6 722.3 L584.4 723.8 L585.0 725.3 L585.4 726.8 L585.5 728.3 L585.5 729.8 L585.5 731.3 L585.5 732.8 L585.3 734.3 L585.1 735.8 L584.6 737.3 L584.1 738.8 L583.4 740.3 L582.7 741.8 L582.2 743.3 L581.8 744.7 L581.2 746.2 L580.4 747.5 L579.5 748.8 L578.5 750.2 L577.6 751.5 L576.6 752.7 L575.4 753.8 L574.1 754.7 L572.8 755.7 L571.5 756.6 L570.1 757.5 L568.7 758.4 L567.3 759.1 L565.7 759.8 L564.1 760.5 L562.4 761.0 L560.8 761.4 L559.3 761.5 L557.8 761.5 L556.3 761.7 L554.8 762.1 L553.3 762.3 L551.8 762.5 L550.3 762.5 L548.8 762.5 L547.3 762.5 L545.8 762.5 L544.3 762.3 L542.8 761.9 L541.3 761.5 L539.8 760.9 L538.3 760.1 L536.8 759.4 L535.3 758.6 L533.8 757.9 L532.3 757.1 L530.8 756.4 L529.3 755.6 L527.8 754.9 L526.3 754.1 L524.8 753.3 L523.5 752.4 L522.2 751.4 L521.0 750.4 L519.8 749.3 L518.7 748.1 L517.7 746.9 L516.8 745.6 L515.8 744.3 L514.9 743.0 L514.0 741.7 L513.0 740.3 L512.1 739.0 L511.2 737.7 L510.4 736.2 L509.6 734.8 L508.9 733.3 L508.1 731.8 L507.4 730.2 L506.7 728.6 L506.2 727.0 L505.7 725.3 L505.5 723.8 L505.5 722.3 L505.5 720.8 L505.5 719.3 L505.5 717.8 L505.7 716.3 L506.1 714.8 L506.4 713.3 L506.8 711.8 L507.2 710.3 L507.6 708.8 L507.9 707.3 L508.4 705.8 L509.0 704.4 L509.9 703.0 L510.9 701.8 L511.9 700.6 L513.1 699.4 L514.2 698.3 L515.3 697.2 L516.5 696.1 L517.8 695.2 L519.3 694.4 L520.8 693.7 L522.3 693.2 L523.8 692.8 L525.3 692.4 L526.8 692.1 L528.3 691.7 L529.8 691.3 L531.3 690.9 L532.8 690.6 L534.3 690.2 L535.8 689.8 L537.3 689.3 L538.8 688.6 L540.3 687.9 L541.8 687.4 L543.3 686.9 L544.8 686.7 L546.3 686.5 L547.8 686.5 L549.6 686.3 L551.8 685.8 L553.4 685.5 L555.6 685.1 Z" fill="#2B2722" fill-rule="evenodd"></path></svg>